<?xml version="1.0" encoding="utf-8"?>
<!-- Generator: Adobe Illustrator 16.2.1, SVG Export Plug-In . SVG Version: 6.00 Build 0)  -->
<!DOCTYPE svg PUBLIC "-//W3C//DTD SVG 1.1//EN" "http://www.w3.org/Graphics/SVG/1.1/DTD/svg11.dtd" [
	<!ENTITY ns_extend "http://ns.adobe.com/Extensibility/1.0/">
	<!ENTITY ns_ai "http://ns.adobe.com/AdobeIllustrator/10.0/">
	<!ENTITY ns_graphs "http://ns.adobe.com/Graphs/1.0/">
	<!ENTITY ns_vars "http://ns.adobe.com/Variables/1.0/">
	<!ENTITY ns_imrep "http://ns.adobe.com/ImageReplacement/1.0/">
	<!ENTITY ns_sfw "http://ns.adobe.com/SaveForWeb/1.0/">
	<!ENTITY ns_custom "http://ns.adobe.com/GenericCustomNamespace/1.0/">
	<!ENTITY ns_adobe_xpath "http://ns.adobe.com/XPath/1.0/">
]>
<svg version="1.1" id="Flat" xmlns:x="&ns_extend;" xmlns:i="&ns_ai;" xmlns:graph="&ns_graphs;"
	 xmlns="http://www.w3.org/2000/svg" xmlns:xlink="http://www.w3.org/1999/xlink" x="0px" y="0px" width="100px" height="64px"
	 viewBox="0 0 100 64" style="enable-background:new 0 0 100 64;" xml:space="preserve">
<metadata>
	<sfw  xmlns="&ns_sfw;">
		<slices></slices>
		<sliceSourceBounds  width="104" height="68" y="-304.608" x="329.14" bottomLeftOrigin="true"></sliceSourceBounds>
	</sfw>
</metadata>
<g style="display:none;">
	<path style="display:inline;fill:#FFFFFF;" d="M7,65c-4.411,0-8-3.589-8-8V7c0-4.411,3.589-8,8-8h86c4.411,0,8,3.589,8,8v50
		c0,4.411-3.589,8-8,8H7z"/>
	<path style="display:inline;fill:#495866;" d="M93,0c3.866,0,7,3.134,7,7v50c0,3.866-3.134,7-7,7H7c-3.866,0-7-3.134-7-7V7
		c0-3.866,3.134-7,7-7H93 M93-2H7C2.038-2-2,2.038-2,7v50c0,4.962,4.038,9,9,9h86c4.962,0,9-4.038,9-9V7C102,2.038,97.962-2,93-2
		L93-2z"/>
</g>
<rect style="fill:#97A7BA;" width="100" height="64"/>
<circle style="fill:none;stroke:#FFFFFF;stroke-width:2;stroke-miterlimit:10;" cx="50" cy="23.874" r="12.587"/>
<polygon style="fill-rule:evenodd;clip-rule:evenodd;fill:#FFFFFF;" points="55.473,24.137 46,29.399 46,18.874 "/>
<rect y="46.391" style="opacity:0.5;" width="100" height="17.609"/>
<polygon id="Small_Play" style="fill-rule:evenodd;clip-rule:evenodd;fill:#FFFFFF;" points="10.729,55.195 5.667,58.008 
	5.667,52.383 "/>
<g id="Timer">
	<path style="fill:#FFFFFF;" d="M14.791,54.715c0.008-0.168,0.028-0.332,0.06-0.492c0.032-0.16,0.078-0.312,0.138-0.456
		s0.142-0.27,0.246-0.378s0.235-0.194,0.393-0.258c0.158-0.064,0.347-0.096,0.567-0.096c0.22,0,0.409,0.032,0.567,0.096
		c0.158,0.064,0.289,0.15,0.393,0.258s0.186,0.234,0.246,0.378s0.106,0.296,0.138,0.456c0.032,0.16,0.052,0.324,0.06,0.492
		c0.008,0.168,0.012,0.33,0.012,0.486c0,0.156-0.004,0.318-0.012,0.486c-0.008,0.168-0.028,0.332-0.06,0.492
		c-0.032,0.16-0.078,0.311-0.138,0.453c-0.06,0.142-0.142,0.267-0.246,0.375c-0.104,0.108-0.234,0.193-0.39,0.255
		c-0.156,0.062-0.346,0.093-0.57,0.093c-0.22,0-0.409-0.031-0.567-0.093c-0.158-0.062-0.289-0.147-0.393-0.255
		c-0.104-0.108-0.186-0.233-0.246-0.375c-0.06-0.142-0.106-0.293-0.138-0.453c-0.032-0.16-0.052-0.324-0.06-0.492
		c-0.008-0.168-0.012-0.33-0.012-0.486C14.779,55.045,14.783,54.884,14.791,54.715z M15.334,55.732
		c0.01,0.198,0.042,0.384,0.096,0.558c0.054,0.174,0.141,0.321,0.261,0.441s0.288,0.18,0.504,0.18s0.384-0.06,0.504-0.18
		s0.207-0.267,0.261-0.441c0.054-0.174,0.086-0.36,0.096-0.558c0.01-0.198,0.015-0.377,0.015-0.537c0-0.104-0.001-0.219-0.003-0.345
		s-0.012-0.252-0.03-0.378c-0.018-0.126-0.044-0.249-0.078-0.369c-0.034-0.12-0.084-0.225-0.15-0.315
		c-0.066-0.09-0.149-0.163-0.249-0.219c-0.1-0.056-0.222-0.084-0.366-0.084s-0.266,0.028-0.366,0.084
		c-0.1,0.056-0.183,0.129-0.249,0.219c-0.066,0.09-0.116,0.195-0.15,0.315c-0.034,0.12-0.06,0.243-0.078,0.369
		c-0.018,0.126-0.028,0.252-0.03,0.378s-0.003,0.241-0.003,0.345C15.319,55.355,15.324,55.535,15.334,55.732z"/>
	<path style="fill:#FFFFFF;" d="M18.193,53.941c0.056-0.184,0.143-0.343,0.261-0.477c0.118-0.134,0.265-0.239,0.441-0.315
		c0.176-0.076,0.375-0.114,0.6-0.114c0.184,0,0.357,0.027,0.519,0.081c0.162,0.054,0.303,0.132,0.423,0.234
		c0.12,0.102,0.215,0.229,0.285,0.381c0.07,0.152,0.105,0.328,0.105,0.528c0,0.188-0.029,0.354-0.087,0.498
		c-0.058,0.144-0.135,0.273-0.231,0.387c-0.096,0.114-0.206,0.217-0.33,0.309s-0.252,0.18-0.384,0.264
		c-0.132,0.08-0.264,0.159-0.396,0.237c-0.132,0.078-0.253,0.161-0.363,0.249c-0.11,0.088-0.204,0.183-0.282,0.285
		c-0.078,0.102-0.129,0.219-0.153,0.351h2.184v0.45h-2.778c0.02-0.252,0.065-0.467,0.135-0.645c0.07-0.178,0.159-0.333,0.267-0.465
		c0.108-0.132,0.23-0.248,0.366-0.348c0.136-0.1,0.278-0.194,0.426-0.282c0.18-0.112,0.338-0.215,0.474-0.309
		c0.136-0.094,0.249-0.189,0.339-0.285c0.09-0.096,0.158-0.2,0.204-0.312s0.069-0.242,0.069-0.39c0-0.116-0.022-0.221-0.066-0.315
		c-0.044-0.094-0.103-0.175-0.177-0.243c-0.074-0.068-0.161-0.12-0.261-0.156s-0.206-0.054-0.318-0.054
		c-0.148,0-0.275,0.031-0.381,0.093c-0.106,0.062-0.193,0.143-0.261,0.243c-0.068,0.1-0.117,0.213-0.147,0.339
		s-0.043,0.253-0.039,0.381h-0.51C18.115,54.326,18.137,54.125,18.193,53.941z"/>
	<path style="fill:#FFFFFF;" d="M21.697,54.854v-0.666h0.666v0.666H21.697z M22.363,56.624v0.666h-0.666v-0.666H22.363z"/>
	<path style="fill:#FFFFFF;" d="M25.957,55.844v0.45h-0.576v0.996h-0.48v-0.996h-1.866v-0.492l1.938-2.766h0.408v2.808H25.957z
		 M24.901,53.762h-0.012l-1.416,2.082h1.428V53.762z"/>
	<path style="fill:#FFFFFF;" d="M27.307,53.558l-0.228,1.224l0.012,0.012c0.092-0.104,0.211-0.181,0.357-0.231
		c0.146-0.05,0.291-0.075,0.435-0.075c0.188,0,0.366,0.03,0.534,0.09s0.314,0.151,0.438,0.273s0.222,0.274,0.294,0.456
		c0.072,0.182,0.108,0.395,0.108,0.639c0,0.18-0.031,0.355-0.093,0.525s-0.155,0.321-0.279,0.453
		c-0.124,0.132-0.279,0.237-0.465,0.315c-0.186,0.078-0.403,0.117-0.651,0.117c-0.184,0-0.357-0.027-0.519-0.081
		c-0.162-0.054-0.305-0.132-0.429-0.234c-0.124-0.102-0.222-0.229-0.294-0.381c-0.072-0.152-0.11-0.324-0.114-0.516h0.51
		c0.008,0.108,0.035,0.209,0.081,0.303c0.046,0.094,0.108,0.176,0.186,0.246c0.078,0.07,0.17,0.124,0.276,0.162
		c0.106,0.038,0.223,0.057,0.351,0.057c0.12,0,0.235-0.021,0.345-0.063s0.206-0.105,0.288-0.189s0.147-0.189,0.195-0.315
		c0.048-0.126,0.072-0.273,0.072-0.441c0-0.14-0.023-0.269-0.069-0.387s-0.111-0.22-0.195-0.306s-0.185-0.153-0.303-0.201
		c-0.118-0.048-0.249-0.072-0.393-0.072c-0.168,0-0.317,0.037-0.447,0.111c-0.13,0.074-0.245,0.171-0.345,0.291l-0.438-0.024
		l0.396-2.208h2.1v0.45H27.307z"/>
</g>
<g id="Progress_bar">
	<path style="opacity:0.3;fill-rule:evenodd;clip-rule:evenodd;fill:#FFFFFF;" d="M93.527,55.195c0,0.668-0.542,1.21-1.209,1.21
		H35.403c-0.668,0-1.209-0.542-1.209-1.21l0,0c0-0.668,0.542-1.209,1.209-1.209h56.914C92.985,53.986,93.527,54.527,93.527,55.195
		L93.527,55.195z"/>
	<path style="fill-rule:evenodd;clip-rule:evenodd;fill:#FFFFFF;" d="M66.36,55.195c0,0.668-0.542,1.21-1.209,1.21H35.403
		c-0.668,0-1.209-0.542-1.209-1.21l0,0c0-0.668,0.542-1.209,1.209-1.209h29.748C65.819,53.986,66.36,54.527,66.36,55.195
		L66.36,55.195z"/>
</g>
</svg>
