<?xml version="1.0" encoding="utf-8"?>
<!-- Generator: Adobe Illustrator 16.2.1, SVG Export Plug-In . SVG Version: 6.00 Build 0)  -->
<!DOCTYPE svg PUBLIC "-//W3C//DTD SVG 1.1//EN" "http://www.w3.org/Graphics/SVG/1.1/DTD/svg11.dtd" [
	<!ENTITY ns_extend "http://ns.adobe.com/Extensibility/1.0/">
	<!ENTITY ns_ai "http://ns.adobe.com/AdobeIllustrator/10.0/">
	<!ENTITY ns_graphs "http://ns.adobe.com/Graphs/1.0/">
	<!ENTITY ns_vars "http://ns.adobe.com/Variables/1.0/">
	<!ENTITY ns_imrep "http://ns.adobe.com/ImageReplacement/1.0/">
	<!ENTITY ns_sfw "http://ns.adobe.com/SaveForWeb/1.0/">
	<!ENTITY ns_custom "http://ns.adobe.com/GenericCustomNamespace/1.0/">
	<!ENTITY ns_adobe_xpath "http://ns.adobe.com/XPath/1.0/">
]>
<svg version="1.1" xmlns:x="&ns_extend;" xmlns:i="&ns_ai;" xmlns:graph="&ns_graphs;"
	 xmlns="http://www.w3.org/2000/svg" xmlns:xlink="http://www.w3.org/1999/xlink" x="0px" y="0px" width="100px" height="64px"
	 viewBox="0 0 100 64" style="enable-background:new 0 0 100 64;" xml:space="preserve">
<metadata>
	<sfw  xmlns="&ns_sfw;">
		<slices></slices>
		<sliceSourceBounds  width="300.667" height="194" y="-430.608" x="329.14" bottomLeftOrigin="true"></sliceSourceBounds>
	</sfw>
</metadata>
<g id="Light">
</g>
<g id="Flat">
</g>
<g id="Classic">
	<rect x="0" style="fill:#97A7BA;" width="100.001" height="64"/>
	<circle style="display:none;fill:none;stroke:#FFFFFF;stroke-width:2;stroke-miterlimit:10;" cx="50" cy="23.874" r="12.587"/>
	<linearGradient id="SVGID_1_" gradientUnits="userSpaceOnUse" x1="50" y1="10.5752" x2="50" y2="35.6973">
		<stop  offset="0" style="stop-color:#1A1A1A"/>
		<stop  offset="1" style="stop-color:#000000"/>
	</linearGradient>
	<path style="fill:url(#SVGID_1_);fill-opacity:0.89;stroke:#000000;stroke-width:0.4;stroke-miterlimit:10;" d="M62.562,31.031
		c0,2.577-2.09,4.666-4.667,4.666H42.105c-2.577,0-4.667-2.089-4.667-4.666v-15.79c0-2.577,2.09-4.666,4.667-4.666h15.789
		c2.577,0,4.667,2.089,4.667,4.666V31.031z"/>
	<linearGradient id="SVGID_2_" gradientUnits="userSpaceOnUse" x1="50.7368" y1="17.874" x2="50.7368" y2="28.3994">
		<stop  offset="0" style="stop-color:#FFFFFF"/>
		<stop  offset="1" style="stop-color:#B3B3B3"/>
	</linearGradient>
	<polygon style="fill-rule:evenodd;clip-rule:evenodd;fill:url(#SVGID_2_);" points="55.473,23.137 46,28.399 46,17.874 	"/>
	<linearGradient id="SVGID_3_" gradientUnits="userSpaceOnUse" x1="50" y1="46.3906" x2="50" y2="64">
		<stop  offset="0" style="stop-color:#1A1A1A"/>
		<stop  offset="1" style="stop-color:#000000"/>
	</linearGradient>
	<rect x="0" y="46.391" style="opacity:0.89;fill:url(#SVGID_3_);" width="100.001" height="17.609"/>
	<rect y="45.975" width="100.001" height="0.416"/>
	<rect y="46.391" style="opacity:0.15;fill:#FFFFFF;" width="100.001" height="0.416"/>
	<g id="Small_Play_5_">
		<linearGradient id="SVGID_4_" gradientUnits="userSpaceOnUse" x1="8.1982" y1="52.3828" x2="8.1982" y2="58.0078">
			<stop  offset="0" style="stop-color:#FFFFFF"/>
			<stop  offset="1" style="stop-color:#B3B3B3"/>
		</linearGradient>
		<polygon style="fill-rule:evenodd;clip-rule:evenodd;fill:url(#SVGID_4_);" points="10.729,55.195 5.667,58.008 5.667,52.383 		
			"/>
	</g>
	<g id="Timer_4_">
		<linearGradient id="SVGID_5_" gradientUnits="userSpaceOnUse" x1="16.1948" y1="53.0352" x2="16.1948" y2="57.3555">
			<stop  offset="0" style="stop-color:#FFFFFF"/>
			<stop  offset="1" style="stop-color:#B3B3B3"/>
		</linearGradient>
		<path style="fill:url(#SVGID_5_);" d="M14.792,54.715c0.008-0.168,0.027-0.331,0.06-0.491s0.077-0.312,0.138-0.456
			s0.143-0.27,0.246-0.378s0.234-0.194,0.393-0.259c0.158-0.063,0.348-0.096,0.567-0.096s0.409,0.032,0.567,0.096
			c0.158,0.064,0.289,0.15,0.393,0.259s0.186,0.233,0.246,0.378s0.105,0.296,0.139,0.456c0.031,0.16,0.051,0.323,0.059,0.491
			c0.009,0.169,0.013,0.33,0.013,0.486s-0.004,0.318-0.013,0.486c-0.008,0.168-0.027,0.332-0.059,0.492
			c-0.033,0.16-0.078,0.311-0.139,0.453c-0.061,0.142-0.143,0.267-0.246,0.375c-0.104,0.107-0.234,0.193-0.391,0.255
			c-0.155,0.062-0.346,0.093-0.569,0.093c-0.22,0-0.409-0.031-0.567-0.093s-0.289-0.147-0.393-0.255
			c-0.104-0.108-0.186-0.233-0.246-0.375c-0.061-0.143-0.105-0.293-0.138-0.453s-0.052-0.324-0.06-0.492
			c-0.009-0.168-0.013-0.33-0.013-0.486S14.783,54.884,14.792,54.715z M15.334,55.732c0.01,0.198,0.041,0.385,0.096,0.559
			c0.054,0.174,0.141,0.32,0.261,0.44s0.288,0.181,0.504,0.181s0.384-0.061,0.504-0.181s0.207-0.267,0.261-0.44
			c0.055-0.174,0.086-0.36,0.096-0.559c0.011-0.197,0.016-0.377,0.016-0.537c0-0.104-0.001-0.219-0.003-0.345
			s-0.013-0.252-0.03-0.378s-0.044-0.249-0.078-0.369c-0.033-0.12-0.084-0.225-0.149-0.314c-0.066-0.09-0.149-0.164-0.249-0.22
			s-0.223-0.084-0.366-0.084s-0.267,0.028-0.366,0.084s-0.183,0.13-0.248,0.22c-0.066,0.09-0.117,0.194-0.15,0.314
			c-0.034,0.12-0.061,0.243-0.078,0.369s-0.028,0.252-0.03,0.378s-0.003,0.241-0.003,0.345
			C15.319,55.355,15.324,55.535,15.334,55.732z"/>
		<linearGradient id="SVGID_6_" gradientUnits="userSpaceOnUse" x1="19.4165" y1="53.0352" x2="19.4165" y2="57.2891">
			<stop  offset="0" style="stop-color:#FFFFFF"/>
			<stop  offset="1" style="stop-color:#B3B3B3"/>
		</linearGradient>
		<path style="fill:url(#SVGID_6_);" d="M18.193,53.941c0.056-0.184,0.144-0.343,0.261-0.477c0.118-0.135,0.266-0.239,0.441-0.315
			c0.176-0.075,0.375-0.114,0.6-0.114c0.184,0,0.357,0.027,0.52,0.082c0.162,0.053,0.303,0.131,0.423,0.233s0.215,0.229,0.284,0.381
			c0.07,0.152,0.105,0.328,0.105,0.528c0,0.188-0.029,0.354-0.087,0.498c-0.058,0.144-0.135,0.273-0.231,0.387
			c-0.096,0.114-0.205,0.217-0.33,0.309c-0.123,0.092-0.252,0.181-0.383,0.265c-0.133,0.08-0.265,0.159-0.396,0.237
			c-0.133,0.078-0.253,0.16-0.363,0.248c-0.109,0.088-0.203,0.184-0.281,0.285s-0.129,0.219-0.154,0.352h2.185v0.449h-2.778
			c0.021-0.252,0.065-0.467,0.135-0.645c0.07-0.178,0.16-0.333,0.268-0.465c0.107-0.133,0.23-0.248,0.366-0.348
			c0.136-0.101,0.278-0.194,0.426-0.283c0.181-0.111,0.338-0.215,0.474-0.309c0.137-0.094,0.25-0.188,0.34-0.285
			c0.09-0.096,0.158-0.199,0.203-0.312c0.047-0.112,0.069-0.242,0.069-0.39c0-0.116-0.022-0.221-0.065-0.315
			c-0.045-0.094-0.104-0.175-0.178-0.243s-0.16-0.119-0.261-0.156c-0.101-0.035-0.206-0.054-0.317-0.054
			c-0.148,0-0.275,0.031-0.381,0.093c-0.107,0.062-0.193,0.144-0.262,0.244c-0.068,0.1-0.117,0.213-0.146,0.338
			c-0.03,0.127-0.043,0.254-0.039,0.381h-0.51C18.115,54.326,18.137,54.125,18.193,53.941z"/>
		<linearGradient id="SVGID_7_" gradientUnits="userSpaceOnUse" x1="22.0298" y1="54.1875" x2="22.0298" y2="57.2891">
			<stop  offset="0" style="stop-color:#FFFFFF"/>
			<stop  offset="1" style="stop-color:#B3B3B3"/>
		</linearGradient>
		<path style="fill:url(#SVGID_7_);" d="M21.697,54.854v-0.666h0.666v0.666H21.697z M22.363,56.623v0.666h-0.666v-0.666H22.363z"/>
		<linearGradient id="SVGID_8_" gradientUnits="userSpaceOnUse" x1="24.4956" y1="53.0352" x2="24.4956" y2="57.2891">
			<stop  offset="0" style="stop-color:#FFFFFF"/>
			<stop  offset="1" style="stop-color:#B3B3B3"/>
		</linearGradient>
		<path style="fill:url(#SVGID_8_);" d="M25.957,55.844v0.449h-0.575v0.996h-0.48v-0.996h-1.866v-0.491l1.938-2.767h0.408v2.809
			H25.957z M24.901,53.762h-0.012l-1.416,2.082h1.428V53.762z"/>
		<linearGradient id="SVGID_9_" gradientUnits="userSpaceOnUse" x1="27.8345" y1="53.1074" x2="27.8345" y2="57.3555">
			<stop  offset="0" style="stop-color:#FFFFFF"/>
			<stop  offset="1" style="stop-color:#B3B3B3"/>
		</linearGradient>
		<path style="fill:url(#SVGID_9_);" d="M27.307,53.558l-0.229,1.224l0.012,0.012c0.092-0.104,0.211-0.18,0.357-0.23
			c0.146-0.05,0.291-0.074,0.436-0.074c0.188,0,0.365,0.029,0.533,0.09c0.168,0.06,0.314,0.15,0.438,0.272
			c0.125,0.122,0.223,0.274,0.295,0.456s0.107,0.395,0.107,0.639c0,0.18-0.031,0.355-0.093,0.525s-0.155,0.32-0.278,0.453
			c-0.125,0.132-0.279,0.236-0.466,0.314s-0.403,0.117-0.651,0.117c-0.184,0-0.356-0.027-0.519-0.081s-0.306-0.132-0.429-0.233
			c-0.124-0.103-0.223-0.229-0.294-0.381c-0.072-0.152-0.11-0.324-0.114-0.517h0.51c0.008,0.108,0.035,0.209,0.081,0.304
			c0.046,0.094,0.108,0.176,0.187,0.245c0.078,0.07,0.17,0.124,0.275,0.162c0.106,0.038,0.223,0.058,0.352,0.058
			c0.119,0,0.234-0.021,0.345-0.063s0.206-0.104,0.288-0.188s0.146-0.189,0.195-0.315c0.048-0.126,0.072-0.272,0.072-0.441
			c0-0.14-0.023-0.269-0.07-0.387c-0.045-0.118-0.11-0.22-0.194-0.306s-0.185-0.153-0.304-0.201
			c-0.117-0.049-0.248-0.072-0.393-0.072c-0.168,0-0.316,0.037-0.447,0.111c-0.129,0.074-0.244,0.171-0.344,0.291l-0.438-0.024
			l0.396-2.208h2.1v0.45H27.307z"/>
	</g>
	<g>
		<linearGradient id="SVGID_10_" gradientUnits="userSpaceOnUse" x1="63.3193" y1="53.1748" x2="63.3193" y2="57.2881">
			<stop  offset="0" style="stop-color:#666666"/>
			<stop  offset="1" style="stop-color:#333333"/>
		</linearGradient>
		<path style="fill-rule:evenodd;clip-rule:evenodd;fill:url(#SVGID_10_);" d="M35.384,57.288c-1.134,0-2.057-0.923-2.057-2.057
			s0.923-2.057,2.057-2.057h55.87c1.135,0,2.058,0.923,2.058,2.057s-0.923,2.057-2.058,2.057H35.384z"/>
		<path d="M91.254,53.375c1.025,0,1.857,0.831,1.857,1.856s-0.832,1.856-1.857,1.856h-55.87c-1.025,0-1.856-0.831-1.856-1.856
			s0.831-1.856,1.856-1.856H91.254 M91.254,52.975h-55.87c-1.244,0-2.256,1.013-2.256,2.257s1.012,2.257,2.256,2.257h55.87
			c1.245,0,2.258-1.013,2.258-2.257S92.499,52.975,91.254,52.975L91.254,52.975z"/>
	</g>
	<g>
		<linearGradient id="SVGID_11_" gradientUnits="userSpaceOnUse" x1="48.3198" y1="53.1748" x2="48.3198" y2="57.2881">
			<stop  offset="0" style="stop-color:#FFFFFF"/>
			<stop  offset="1" style="stop-color:#B3B3B3"/>
		</linearGradient>
		<path style="fill-rule:evenodd;clip-rule:evenodd;fill:url(#SVGID_11_);" d="M35.384,57.288c-1.134,0-2.057-0.923-2.057-2.057
			s0.923-2.057,2.057-2.057h25.87c1.134,0,2.058,0.923,2.058,2.057s-0.923,2.057-2.058,2.057H35.384z"/>
		<path d="M61.254,53.375c1.025,0,1.857,0.831,1.857,1.856s-0.832,1.856-1.857,1.856h-25.87c-1.025,0-1.856-0.831-1.856-1.856
			s0.831-1.856,1.856-1.856H61.254 M61.254,52.975h-25.87c-1.244,0-2.256,1.013-2.256,2.257s1.012,2.257,2.256,2.257h25.87
			c1.245,0,2.257-1.013,2.257-2.257S62.499,52.975,61.254,52.975L61.254,52.975z"/>
	</g>
	<g>
		<linearGradient id="SVGID_12_" gradientUnits="userSpaceOnUse" x1="62.1304" y1="53.1748" x2="62.1304" y2="57.2812">
			<stop  offset="0" style="stop-color:#333333"/>
			<stop  offset="1" style="stop-color:#000000"/>
		</linearGradient>
		<circle style="fill-rule:evenodd;clip-rule:evenodd;fill:url(#SVGID_12_);" cx="62.13" cy="55.228" r="2.053"/>
		<path d="M62.13,53.375c1.024,0,1.853,0.829,1.853,1.853s-0.829,1.854-1.853,1.854c-1.023,0-1.853-0.83-1.853-1.854
			S61.106,53.375,62.13,53.375 M62.13,52.975c-1.242,0-2.252,1.011-2.252,2.253s1.01,2.254,2.252,2.254s2.253-1.012,2.253-2.254
			S63.372,52.975,62.13,52.975L62.13,52.975z"/>
	</g>
</g>
</svg>
