<?xml version="1.0" encoding="utf-8"?>
<!-- Generator: Adobe Illustrator 16.2.1, SVG Export Plug-In . SVG Version: 6.00 Build 0)  -->
<!DOCTYPE svg PUBLIC "-//W3C//DTD SVG 1.1//EN" "http://www.w3.org/Graphics/SVG/1.1/DTD/svg11.dtd" [
	<!ENTITY ns_extend "http://ns.adobe.com/Extensibility/1.0/">
	<!ENTITY ns_ai "http://ns.adobe.com/AdobeIllustrator/10.0/">
	<!ENTITY ns_graphs "http://ns.adobe.com/Graphs/1.0/">
	<!ENTITY ns_vars "http://ns.adobe.com/Variables/1.0/">
	<!ENTITY ns_imrep "http://ns.adobe.com/ImageReplacement/1.0/">
	<!ENTITY ns_sfw "http://ns.adobe.com/SaveForWeb/1.0/">
	<!ENTITY ns_custom "http://ns.adobe.com/GenericCustomNamespace/1.0/">
	<!ENTITY ns_adobe_xpath "http://ns.adobe.com/XPath/1.0/">
]>
<svg version="1.1" id="Layer_1" xmlns:x="&ns_extend;" xmlns:i="&ns_ai;" xmlns:graph="&ns_graphs;"
	 xmlns="http://www.w3.org/2000/svg" xmlns:xlink="http://www.w3.org/1999/xlink" x="0px" y="0px" width="28.019px"
	 height="26.931px" viewBox="0 0 28.019 26.931" style="enable-background:new 0 0 28.019 26.931;" xml:space="preserve">
<metadata>
	<sfw  xmlns="&ns_sfw;">
		<slices></slices>
		<sliceSourceBounds  width="28.019" height="26.931" bottomLeftOrigin="true" y="-293.891" x="465.573"></sliceSourceBounds>
	</sfw>
</metadata>
<g>
	<path style="fill:#FFFFFF;" d="M5.177,0.04c5.93-0.03,11.859,0,17.79-0.04c1.7,2.28,3.72,4.41,4.819,7.08
		c0.36,2.54,0.19,5.13,0.201,7.7c-2.23,0.07-4.44,0.13-6.65,0.22c-0.82,1.3-1.35,2.86-2.53,3.89c-2.89,0.42-5.87,0.44-8.75-0.01
		c-1.33-0.89-1.6-2.66-2.37-3.96c-2.55-0.04-5.09-0.069-7.62-0.11c0.06-2.549-0.38-5.209,0.42-7.669
		C1.707,4.56,3.547,2.36,5.177,0.04z M7.047,3.16c-1.24,1.12-2.19,2.5-3.2,3.81c6.8,0.11,13.62,0.09,20.43-0.02
		c-0.979-1.36-1.949-2.72-2.93-4.07C16.587,3.08,11.767,2.46,7.047,3.16z M3.227,9.8c-0.08,0.55-0.25,1.65-0.33,2.2
		c7.51,0.01,15.021,0.17,22.521-0.19c-0.08-0.48-0.26-1.45-0.34-1.94C17.787,9.92,10.507,9.98,3.227,9.8z M11.137,14.84
		c0.03,0.351,0.08,1.03,0.1,1.38c2.15-0.01,4.31-0.01,6.48,0c-0.04-0.359-0.11-1.06-0.14-1.41
		C15.417,14.82,13.277,14.83,11.137,14.84z"/>
</g>
<path style="fill:#FFFFFF;" d="M1.287,16.34c0.64-0.01,1.92-0.04,2.56-0.05c0.18,2.561,0.14,5.141,0.13,7.721
	c6.96,0.039,13.92,0.02,20.89,0.01c-0.02-2.561-0.06-5.131,0.141-7.69c0.63-0.01,1.9-0.03,2.54-0.05c0.43,3.5,0.28,7.02,0.17,10.54
	c-8.86,0.149-17.72,0.149-26.57-0.011C1.027,23.32,0.867,19.82,1.287,16.34z"/>
</svg>
