<?xml version="1.0" encoding="utf-8"?>
<!-- Generator: Adobe Illustrator 16.2.1, SVG Export Plug-In . SVG Version: 6.00 Build 0)  -->
<!DOCTYPE svg PUBLIC "-//W3C//DTD SVG 1.1//EN" "http://www.w3.org/Graphics/SVG/1.1/DTD/svg11.dtd" [
	<!ENTITY ns_extend "http://ns.adobe.com/Extensibility/1.0/">
	<!ENTITY ns_ai "http://ns.adobe.com/AdobeIllustrator/10.0/">
	<!ENTITY ns_graphs "http://ns.adobe.com/Graphs/1.0/">
	<!ENTITY ns_vars "http://ns.adobe.com/Variables/1.0/">
	<!ENTITY ns_imrep "http://ns.adobe.com/ImageReplacement/1.0/">
	<!ENTITY ns_sfw "http://ns.adobe.com/SaveForWeb/1.0/">
	<!ENTITY ns_custom "http://ns.adobe.com/GenericCustomNamespace/1.0/">
	<!ENTITY ns_adobe_xpath "http://ns.adobe.com/XPath/1.0/">
]>
<svg version="1.1" id="Layer_1" xmlns:x="&ns_extend;" xmlns:i="&ns_ai;" xmlns:graph="&ns_graphs;"
	 xmlns="http://www.w3.org/2000/svg" xmlns:xlink="http://www.w3.org/1999/xlink" x="0px" y="0px" width="147.745px"
	 height="60.768px" viewBox="0 0 147.745 60.768" style="enable-background:new 0 0 147.745 60.768;" xml:space="preserve">
<metadata>
	<sfw  xmlns="&ns_sfw;">
		<slices></slices>
		<sliceSourceBounds  width="147.745" height="60.768" bottomLeftOrigin="true" y="-311.02" x="405.58"></sliceSourceBounds>
	</sfw>
</metadata>
<path style="fill:#FFFFFF;" d="M135.979,28.589v2.691h-5.268v-2.691c0-2.689,0.881-4.033,2.641-4.033
	C135.099,24.556,135.979,25.9,135.979,28.589z M113.802,24.556c-0.867,0-1.746,0.412-2.627,1.281V43.56
	c0.881,0.881,1.76,1.297,2.627,1.297c1.52,0,2.293-1.297,2.293-3.924V28.525C116.095,25.9,115.321,24.556,113.802,24.556z
	 M147.745,30.384c0,6.799-0.01,14.006-1.527,20.609c-1.066,4.637-4.859,8.057-9.424,8.566c-10.811,1.207-21.752,1.213-32.646,1.207
	c-10.895,0.006-21.837,0-32.647-1.207c-4.564-0.51-8.355-3.93-9.422-8.566c-1.518-6.604-1.518-13.811-1.518-20.609
	s0.018-14.006,1.535-20.609c1.066-4.637,4.857-8.057,9.422-8.566C82.328,0,93.271-0.005,104.165,0
	c10.895-0.006,21.836,0,32.646,1.208c4.564,0.51,8.357,3.93,9.424,8.566C147.753,16.378,147.745,23.585,147.745,30.384z
	 M85.428,10.221H67.059v5.493h6.197v33.531h5.861V15.714h6.311V10.221z M101.347,20.167h-5.271v22.225
	c-1.17,1.65-2.273,2.465-3.332,2.465c-0.703,0-1.104-0.416-1.232-1.232c-0.049-0.172-0.049-0.814-0.049-2.049V20.167h-5.267V43.16
	c0,2.053,0.176,3.443,0.465,4.324c0.527,1.473,1.695,2.162,3.395,2.162c1.937,0,3.925-1.17,6.021-3.572v3.172h5.271V20.167z
	 M121.362,28.941c0-2.754-0.18-4.676-0.531-5.846c-0.703-2.178-2.113-3.281-4.211-3.281c-1.938,0-3.744,1.059-5.445,3.152V10.221
	h-5.268v39.024h5.268v-2.818c1.76,2.178,3.572,3.219,5.445,3.219c2.098,0,3.508-1.105,4.211-3.268
	c0.352-1.232,0.531-3.17,0.531-5.859V28.941z M141.247,29.646c0-3.107-0.527-5.381-1.629-6.852c-1.477-1.99-3.574-2.98-6.217-2.98
	c-2.689,0-4.787,0.99-6.311,2.98c-1.119,1.471-1.629,3.744-1.629,6.852V39.83c0,3.09,0.574,5.383,1.693,6.838
	c1.523,1.986,3.621,2.979,6.377,2.979c2.752,0,4.914-1.041,6.371-3.152c0.641-0.932,1.055-1.988,1.232-3.156
	c0.047-0.527,0.111-1.697,0.111-3.395v-0.77h-5.375c0,2.113-0.068,3.283-0.117,3.57c-0.301,1.408-1.057,2.113-2.354,2.113
	c-1.809,0-2.689-1.344-2.689-4.035v-5.154h10.535V29.646z M13.299,33.271v15.971H7.395V33.271
	c-0.535-2.828-1.717-6.975-3.609-12.475C2.539,17.138,1.244,13.466,0,9.809h6.213l4.191,15.485l4.027-15.485h5.971L13.299,33.271z
	 M34.529,46.638c-1.473,2.004-3.545,3.008-6.213,3.008c-2.652,0-4.727-1.004-6.197-3.008c-1.133-1.471-1.668-3.787-1.668-6.91
	V29.437c0-3.141,0.535-5.438,1.668-6.922c1.471-2.01,3.545-3.012,6.197-3.012c2.668,0,4.74,1.002,6.213,3.012
	c1.115,1.484,1.652,3.781,1.652,6.922v10.291C36.182,42.851,35.645,45.167,34.529,46.638z M30.855,28.369
	c0-2.719-0.822-4.074-2.539-4.074s-2.541,1.355-2.541,4.074V40.73c0,2.719,0.824,4.078,2.541,4.078s2.539-1.359,2.539-4.078V28.369z
	 M50.547,49.242v-3.205c-2.119,2.43-4.141,3.609-6.084,3.609c-1.713,0-2.896-0.695-3.428-2.184
	c-0.293-0.891-0.473-2.295-0.473-4.369V19.857h5.309v21.635c0,1.248,0,1.896,0.064,2.07c0.117,0.824,0.535,1.246,1.25,1.246
	c1.064,0,2.182-0.824,3.361-2.492V19.857h5.324v29.385H50.547z"/>
</svg>
