<?xml version="1.0" encoding="utf-8"?>
<!-- Generator: Adobe Illustrator 16.2.1, SVG Export Plug-In . SVG Version: 6.00 Build 0)  -->
<!DOCTYPE svg PUBLIC "-//W3C//DTD SVG 1.1//EN" "http://www.w3.org/Graphics/SVG/1.1/DTD/svg11.dtd" [
	<!ENTITY ns_extend "http://ns.adobe.com/Extensibility/1.0/">
	<!ENTITY ns_ai "http://ns.adobe.com/AdobeIllustrator/10.0/">
	<!ENTITY ns_graphs "http://ns.adobe.com/Graphs/1.0/">
	<!ENTITY ns_vars "http://ns.adobe.com/Variables/1.0/">
	<!ENTITY ns_imrep "http://ns.adobe.com/ImageReplacement/1.0/">
	<!ENTITY ns_sfw "http://ns.adobe.com/SaveForWeb/1.0/">
	<!ENTITY ns_custom "http://ns.adobe.com/GenericCustomNamespace/1.0/">
	<!ENTITY ns_adobe_xpath "http://ns.adobe.com/XPath/1.0/">
]>
<svg version="1.1" xmlns:x="&ns_extend;" xmlns:i="&ns_ai;" xmlns:graph="&ns_graphs;"
	 xmlns="http://www.w3.org/2000/svg" xmlns:xlink="http://www.w3.org/1999/xlink" x="0px" y="0px" width="66.81px"
	 height="60.234px" viewBox="0 0 66.81 60.234" style="enable-background:new 0 0 66.81 60.234;" xml:space="preserve">
<metadata>
	<sfw  xmlns="&ns_sfw;">
		<slices></slices>
		<sliceSourceBounds  width="594.852" height="754.922" bottomLeftOrigin="true" x="-346.297" y="-1010.197"></sliceSourceBounds>
	</sfw>
</metadata>
<g id="Activision">
</g>
<g id="Sony">
</g>
<g id="jQuery">
</g>
<g id="Ford">
</g>
<g id="Nissan">
</g>
<g id="npr">
</g>
<g id="Ralph_Lauren">
</g>
<g id="Tetrapak">
	<g>
		<polyline id="polyline25" style="fill:#7690B3;" points="54.033,31.751 62.837,20.755 53.773,20.755 49.454,26.179 54.033,31.751 
					"/>
		<path id="path27" style="fill:#7690B3;" d="M37.64,26.259c1.757,0,3.266,0.779,4.369,2.072c0.392,0.481,0.522,0.605,0.82,0.996
			c1.042,1.34,1.412,1.818,2.025,2.591c-0.613,0.743-0.967,1.255-2.025,2.599c-0.309,0.383-0.428,0.519-0.82,0.983
			c-1.103,1.307-2.612,2.071-4.369,2.071c-3.112,0-5.635-2.535-5.635-5.648C31.998,28.812,34.528,26.259,37.64,26.259"/>
		<path id="path29" style="fill:#7690B3;" d="M33.271,43.681c-1.103-0.285-2.144-0.873-2.472-1.082
			c-3.553-2.225-5.908-6.097-5.908-10.691c0-7.051,5.705-12.747,12.749-12.747c3.48,0,6.931,1.324,9.685,4.548l0.156,0.183
			l0.112-0.088L33.822,0L8.554,43.8h24.707L33.271,43.681"/>
		<path id="path31" style="fill:#7690B3;" d="M42.221,43.681l0.006,0.12h16.946v-0.128c0,0-0.253-0.045-0.521-0.088
			c-1.134-0.147-2.034-0.454-2.665-0.722c-2.56-1.05-4.708-3.137-6.534-5.292c0,0-1.358,1.776-2.567,3.095
			C45.086,42.635,43.143,43.449,42.221,43.681"/>
		<polyline id="polyline33" style="fill:#7690B3;" points="58.399,59.936 60.744,59.936 60.744,57.114 61.647,56.206 63.983,59.936 
			66.81,59.936 63.318,54.715 66.442,51.484 63.681,51.484 60.744,54.613 60.744,48.216 58.396,48.216 58.399,59.936 		"/>
		<path id="path35" style="fill:#7690B3;" d="M42.784,59.936v-4.05c0.666,0,1.321,0,1.321,0c2.841,0.051,5.083-0.752,5.083-3.882
			c0-2.549-1.98-3.901-4.827-3.796h-4.065v11.729L42.784,59.936 M44.483,50.229c1.405-0.061,2.283,0.504,2.297,1.801
			c0.017,1.304-0.959,1.854-2.241,1.815h-1.75v-3.616H44.483z"/>
		<path id="path37" style="fill:#7690B3;" d="M51.387,54.129c0,0-0.145-1.288,1.677-1.268c0.752,0.024,1.44,0.39,1.399,1.053
			c-0.041,0.493-0.445,0.617-1.274,0.74c-1.336,0.166-2.279,0.381-2.916,0.692c-0.82,0.407-1.524,1.253-1.453,2.312
			c0.101,1.615,1.783,2.565,3.413,2.496c1.9-0.082,2.27-1.23,2.27-1.23c0.015,0.193,0.02,0.195,0.065,0.458
			c0.046,0.382,0.128,0.556,0.128,0.556h2.398c-0.128-0.114-0.192-0.158-0.261-0.308c-0.082-0.19-0.102-0.366-0.102-0.562v-4.854
			c0-2.381-1.912-2.982-3.788-3.016c-3.534-0.058-3.534,2.466-3.614,2.867L51.387,54.129 M52.762,58.454
			c-0.712,0.068-1.636-0.131-1.667-1.036c-0.031-0.872,1.205-1.122,1.835-1.248c0.498-0.103,0.969-0.233,1.323-0.37
			c0.195-0.087,0.25-0.157,0.25-0.157v1.165C54.448,57.689,53.863,58.349,52.762,58.454L52.762,58.454z"/>
		<polyline id="polyline39" style="fill:#7690B3;" points="6.02,59.936 6.02,50.294 9.591,50.294 9.591,48.199 0,48.199 0,50.294 
			3.527,50.294 3.527,59.936 6.02,59.936 		"/>
		<path id="path41" style="fill:#7690B3;" d="M7.807,55.964c0.153,3.14,2.806,4.31,4.387,4.27c3.428-0.104,4.093-2.808,4.093-2.808
			l-2.397-0.143c0,0-0.382,1.081-1.707,1.068c-2.012,0-2.068-2.003-2.068-2.003h6.264c0,0,0.231-5.049-4.412-5.115
			C9.338,51.197,7.674,53.403,7.807,55.964 M13.904,54.698h-3.726c0,0,0.162-1.616,1.83-1.625
			C13.66,53.058,13.904,54.698,13.904,54.698z"/>
		<path id="path43" style="fill:#7690B3;" d="M22.953,59.936h2.334V56.09c0-1.063,0.21-2.04,1.17-2.52
			c0.497-0.249,0.896-0.274,1.45-0.202v-2.002c-0.079-0.049-0.352-0.078-0.611-0.085c-0.756-0.042-1.468,0.39-1.896,1.16
			c-0.039,0.066-0.063,0.12-0.134,0.289l-0.082-1.215h-2.23V59.936"/>
		<path id="path45_1_" style="fill:#7690B3;" d="M16.537,53.11h1.168v4.319c0,0.696,0.067,1.582,0.736,2.075
			c0.677,0.491,1.589,0.433,2.45,0.419c0.365,0,0.721,0,0.721,0l0.005-1.728h-0.55c-0.38,0-0.6-0.025-0.792-0.172
			c-0.291-0.228-0.268-0.599-0.268-0.801v-4.112h1.553v-1.598h-1.553v-2.666l-2.303-0.014v2.665l-1.168,0.015V53.11"/>
		<path id="path47_1_" style="fill:#7690B3;" d="M30.483,54.12c0,0-0.147-1.298,1.679-1.267c0.755,0.021,1.446,0.384,1.399,1.061
			c-0.031,0.48-0.439,0.611-1.261,0.735c-1.347,0.171-2.288,0.384-2.931,0.697c-0.825,0.404-1.517,1.254-1.459,2.312
			c0.108,1.615,1.783,2.565,3.42,2.497c1.912-0.082,2.26-1.231,2.26-1.231c0.03,0.193,0.036,0.195,0.071,0.458
			c0.056,0.383,0.136,0.556,0.136,0.556h2.404c-0.134-0.113-0.192-0.157-0.269-0.308c-0.083-0.196-0.103-0.366-0.103-0.562v-4.854
			c0-2.384-1.91-2.988-3.792-3.025c-3.534-0.055-3.534,2.471-3.609,2.878L30.483,54.12 M31.864,58.448
			c-0.712,0.074-1.632-0.125-1.671-1.03c-0.032-0.875,1.209-1.122,1.83-1.254c0.506-0.103,0.981-0.229,1.324-0.38
			c0.205-0.07,0.244-0.146,0.244-0.146v1.17C33.548,57.687,32.961,58.337,31.864,58.448z"/>
	</g>
</g>
<g id="Qualcomm">
</g>
</svg>
