<?xml version="1.0" encoding="utf-8"?>
<!-- Generator: Adobe Illustrator 16.2.1, SVG Export Plug-In . SVG Version: 6.00 Build 0)  -->
<!DOCTYPE svg PUBLIC "-//W3C//DTD SVG 1.1//EN" "http://www.w3.org/Graphics/SVG/1.1/DTD/svg11.dtd" [
	<!ENTITY ns_extend "http://ns.adobe.com/Extensibility/1.0/">
	<!ENTITY ns_ai "http://ns.adobe.com/AdobeIllustrator/10.0/">
	<!ENTITY ns_graphs "http://ns.adobe.com/Graphs/1.0/">
	<!ENTITY ns_vars "http://ns.adobe.com/Variables/1.0/">
	<!ENTITY ns_imrep "http://ns.adobe.com/ImageReplacement/1.0/">
	<!ENTITY ns_sfw "http://ns.adobe.com/SaveForWeb/1.0/">
	<!ENTITY ns_custom "http://ns.adobe.com/GenericCustomNamespace/1.0/">
	<!ENTITY ns_adobe_xpath "http://ns.adobe.com/XPath/1.0/">
]>
<svg version="1.1" xmlns:x="&ns_extend;" xmlns:i="&ns_ai;" xmlns:graph="&ns_graphs;"
	 xmlns="http://www.w3.org/2000/svg" xmlns:xlink="http://www.w3.org/1999/xlink" x="0px" y="0px" width="154.562px"
	 height="18.359px" viewBox="0 0 154.562 18.359" style="enable-background:new 0 0 154.562 18.359;" xml:space="preserve">
<metadata>
	<sfw  xmlns="&ns_sfw;">
		<slices></slices>
		<sliceSourceBounds  width="594.852" height="754.922" bottomLeftOrigin="true" x="-346.297" y="-1010.197"></sliceSourceBounds>
	</sfw>
</metadata>
<g id="Activision">
</g>
<g id="Sony">
</g>
<g id="jQuery">
</g>
<g id="Ford">
</g>
<g id="Nissan">
</g>
<g id="npr">
</g>
<g id="Ralph_Lauren">
	<g>
		<path style="fill-rule:evenodd;clip-rule:evenodd;fill:#7690B3;" d="M111.276,4.604h1.797v8.98c0,0.844-0.055,1.462-0.224,1.966
			c-0.057,0.338-0.281,0.676-0.562,1.067c-0.673,0.955-1.74,1.46-3.144,1.46c-1.011,0-1.797-0.28-2.246-0.899
			c-0.505-0.672-0.786-1.796-0.786-3.256V4.604h1.459V4.38h-4.603v0.225h1.291v9.094c0,3.09,1.516,4.661,4.547,4.661
			c1.685,0,2.92-0.562,3.706-1.571c0.562-0.788,0.842-1.741,0.842-2.865V4.604h1.235V4.38h-3.313V4.604L111.276,4.604z"/>
		<path style="fill-rule:evenodd;clip-rule:evenodd;fill:#7690B3;" d="M96.679,4.323h-0.674l-4.828,13.475h-0.842v0.28h2.752v-0.28
			h-1.629l1.965-5.39h4.21l1.966,5.39h-2.021v0.28h5.052v-0.28h-1.066L96.679,4.323L96.679,4.323z M95.5,6.568l2.078,5.613h-4.043
			L95.5,6.568L95.5,6.568z"/>
		<path style="fill-rule:evenodd;clip-rule:evenodd;fill:#7690B3;" d="M88.033,12.52h-0.224c-0.787,3.426-2.358,5.165-4.773,5.165
			h-4.098V0.393h2.527V0.055h-6.456v0.338h1.685v17.292h-1.685v0.394h13.025V12.52L88.033,12.52z"/>
		<path style="fill-rule:evenodd;clip-rule:evenodd;fill:#7690B3;" d="M137.664,4.604c0.955,0,1.685,0.279,2.189,0.785
			c0.45,0.448,0.842,1.235,1.18,2.303h0.169V4.38h-10.5v0.225h1.347v13.193h-1.347v0.28h10.555V13.81h-0.224
			c-0.113,0.899-0.393,1.741-0.842,2.417c-0.73,1.009-1.628,1.571-2.808,1.571h-3.48v-6.963h1.459c0.842,0,1.404,0.281,1.74,0.899
			c0.226,0.336,0.45,1.01,0.675,1.964H138V7.747h-0.224c-0.282,1.122-0.562,1.908-0.954,2.245c-0.282,0.394-0.899,0.562-1.741,0.562
			h-1.179V4.604H137.664L137.664,4.604z"/>
		<path style="fill-rule:evenodd;clip-rule:evenodd;fill:#7690B3;" d="M116.666,4.604h1.067v13.137h-1.067v0.28h4.94v-0.28h-1.572
			v-6.512h0.113l5.669,6.792h3.089v-0.28h-0.842l-5.446-6.512c3.537-0.113,5.333-1.348,5.333-3.65c0-2.246-2.021-3.312-5.952-3.312
			l-5.333,0.057V4.604L116.666,4.604z M121.326,4.548c1.292,0,2.246,0.167,2.863,0.504c0.786,0.505,1.18,1.294,1.18,2.527
			c0,2.246-1.18,3.369-3.538,3.369h-1.797V4.604L121.326,4.548L121.326,4.548z"/>
		<polygon style="fill-rule:evenodd;clip-rule:evenodd;fill:#7690B3;" points="153.215,4.604 154.562,4.604 154.562,4.38 
			151.587,4.38 151.587,4.604 152.935,4.604 152.935,14.822 146.702,4.38 143.503,4.38 143.503,4.604 144.85,4.604 144.85,17.798 
			143.503,17.798 143.503,18.078 146.928,18.078 146.928,17.798 145.075,17.798 145.075,5.39 145.131,5.39 152.879,18.303 
			153.215,18.303 153.215,4.604 		"/>
		<path style="fill-rule:evenodd;clip-rule:evenodd;fill:#7690B3;" d="M22.739,4.323h-0.675L17.18,17.798h-0.842v0.28h2.751v-0.28
			h-1.572l1.853-5.39h4.322l1.909,5.39h-2.021v0.28h5.053v-0.28h-1.066L22.739,4.323L22.739,4.323z M21.56,6.568l2.021,5.613h-4.043
			L21.56,6.568L21.56,6.568z"/>
		<path style="fill-rule:evenodd;clip-rule:evenodd;fill:#7690B3;" d="M0,0.393h1.348v17.292H0v0.394h6.063v-0.394H4.098V9.15h0.169
			l7.074,8.928h3.762v-0.394h-1.066L7.354,9.096c4.38-0.113,6.569-1.685,6.569-4.716C13.924,1.458,11.51,0,6.569,0L0,0.055V0.393
			L0,0.393z M9.264,1.067c1.01,0.616,1.46,1.685,1.46,3.312c0,1.403-0.394,2.526-1.179,3.312C8.815,8.421,7.748,8.758,6.4,8.758
			H4.098V0.393h1.629C7.354,0.393,8.59,0.616,9.264,1.067L9.264,1.067z"/>
		<polygon style="fill-rule:evenodd;clip-rule:evenodd;fill:#7690B3;" points="55.47,4.38 55.47,4.604 56.93,4.604 56.93,17.798 
			55.47,17.798 55.47,18.078 60.299,18.078 60.299,17.798 58.783,17.798 58.783,11.173 64.901,11.173 64.901,17.798 63.554,17.798 
			63.554,18.078 68.214,18.078 68.214,17.798 66.755,17.798 66.755,4.604 68.214,4.604 68.214,4.38 63.554,4.38 63.554,4.604 
			64.901,4.604 64.901,10.892 58.783,10.892 58.783,4.604 60.299,4.604 60.299,4.38 55.47,4.38 		"/>
		<path style="fill-rule:evenodd;clip-rule:evenodd;fill:#7690B3;" d="M48.228,4.323L42.894,4.38v0.281h1.18v13.023h-1.18v0.28
			h4.997v-0.28h-1.628v-6.118h1.683c4.155,0,6.232-1.237,6.232-3.649c0-1.181-0.45-2.022-1.235-2.584
			C51.934,4.661,50.417,4.323,48.228,4.323L48.228,4.323z M46.263,4.661l1.291-0.057c1.516,0,2.527,0.223,3.088,0.729
			c0.618,0.45,0.955,1.347,0.955,2.584c0,2.245-1.179,3.369-3.481,3.369h-1.852V4.661L46.263,4.661z"/>
		<path style="fill-rule:evenodd;clip-rule:evenodd;fill:#7690B3;" d="M35.202,4.38h-5.277v0.225h1.404v13.193h-1.404v0.28h10.612
			V13.81h-0.226c-0.562,2.641-1.909,3.988-3.874,3.988h-3.312V4.604h2.076V4.38L35.202,4.38z"/>
	</g>
</g>
<g id="Tetrapak">
</g>
<g id="Qualcomm">
</g>
</svg>
