<?xml version="1.0" encoding="utf-8"?>
<!-- Generator: Adobe Illustrator 16.2.1, SVG Export Plug-In . SVG Version: 6.00 Build 0)  -->
<!DOCTYPE svg PUBLIC "-//W3C//DTD SVG 1.1//EN" "http://www.w3.org/Graphics/SVG/1.1/DTD/svg11.dtd" [
	<!ENTITY ns_extend "http://ns.adobe.com/Extensibility/1.0/">
	<!ENTITY ns_ai "http://ns.adobe.com/AdobeIllustrator/10.0/">
	<!ENTITY ns_graphs "http://ns.adobe.com/Graphs/1.0/">
	<!ENTITY ns_vars "http://ns.adobe.com/Variables/1.0/">
	<!ENTITY ns_imrep "http://ns.adobe.com/ImageReplacement/1.0/">
	<!ENTITY ns_sfw "http://ns.adobe.com/SaveForWeb/1.0/">
	<!ENTITY ns_custom "http://ns.adobe.com/GenericCustomNamespace/1.0/">
	<!ENTITY ns_adobe_xpath "http://ns.adobe.com/XPath/1.0/">
]>
<svg version="1.1" xmlns:x="&ns_extend;" xmlns:i="&ns_ai;" xmlns:graph="&ns_graphs;"
	 xmlns="http://www.w3.org/2000/svg" xmlns:xlink="http://www.w3.org/1999/xlink" x="0px" y="0px" width="151.455px"
	 height="34.189px" viewBox="0 0 151.455 34.189" style="enable-background:new 0 0 151.455 34.189;" xml:space="preserve">
<metadata>
	<sfw  xmlns="&ns_sfw;">
		<slices></slices>
		<sliceSourceBounds  width="594.852" height="754.922" bottomLeftOrigin="true" x="-346.297" y="-1010.197"></sliceSourceBounds>
	</sfw>
</metadata>
<g id="Activision">
</g>
<g id="Sony">
</g>
<g id="jQuery">
	<g>
		<path style="fill:#7690B3;" d="M64.765,13.354L64.765,13.354l-0.969,3.436L64.765,13.354L64.765,13.354z"/>
		<path style="fill:#7690B3;" d="M69.752,20.814l-1.068-0.006L69.752,20.814z"/>
		<path style="fill:#7690B3;" d="M70.819,20.82l-1.068-0.006L70.819,20.82z"/>
		<path style="fill:#7690B3;" d="M70.038,25.51l1.115-4.252l-1.115,4.254V25.51L70.038,25.51z"/>
		<path style="fill:#7690B3;" d="M93.606,5.926l-2.077,9.766L93.606,5.926z"/>
		<path style="fill:#7690B3;" d="M88.268,5.926l-1.577,7.295L88.268,5.926L88.268,5.926z"/>
		<path style="fill:#7690B3;" d="M93.251,5.486H88.81c-0.247,0-0.491,0.197-0.544,0.439l-1.577,7.295l-1.576,7.297
			c-0.053,0.238-0.297,0.438-0.544,0.438h-2.695h-0.448c-3.11,0-2.751-2.152-2.113-5.1c0.006-0.029,0.013-0.059,0.019-0.088
			l0.069-0.373c0.005-0.023,0.01-0.047,0.014-0.07l0.142-0.756l0.152-0.811c0.047-0.244,0.116-0.602,0.163-0.826l0.717-3.502
			l0.717-3.504c0.05-0.242-0.112-0.439-0.358-0.439h-4.56c-0.246,0-0.49,0.197-0.541,0.439l-0.979,4.652l-0.98,4.648
			c-0.001,0.002-0.001,0.006-0.002,0.008l-0.091,0.432c-1.129,5.154-0.83,10.07,5.308,10.227c0.1,0.002,0.178,0.002,0.178,0.002
			h9.633c0.246,0,0.49-0.197,0.542-0.439l2.077-9.764l2.077-9.766C93.657,5.684,93.498,5.486,93.251,5.486L93.251,5.486z"/>
		<path style="fill:#7690B3;" d="M110.972,21.006c0.246,0,0.407,0.197,0.358,0.438l-0.432,2.109"/>
		<path style="fill:#7690B3;" d="M110.469,25.662l0.431-2.109l-0.433,2.109H110.469L110.469,25.662z"/>
		<path style="fill:#7690B3;" d="M99.092,18.289c-0.004-0.23,0.259-0.627,0.506-0.627l-0.555-0.01
			C98.793,20.166,99.092,18.289,99.092,18.289L99.092,18.289z"/>
		<path style="fill:#7690B3;" d="M110.972,21.006c0.246,0,0.407,0.197,0.358,0.438l-0.432,2.109l-0.07,0.344"/>
		<path style="fill:#7690B3;" d="M110.469,25.662l0.36-1.766l-0.362,1.768C110.467,25.662,110.469,25.662,110.469,25.662
			L110.469,25.662z"/>
		<path style="fill:#7690B3;" d="M37.419,18.344l0.689-3.061l-0.789,3.498l-0.757,3.561l0.664-3.121
			C37.277,18.979,37.364,18.584,37.419,18.344L37.419,18.344z"/>
		<path style="fill:#7690B3;" d="M45.677,5.436h-4.878c-0.247,0-0.492,0.197-0.548,0.436l-0.462,2.043l-0.464,2.041
			c-0.054,0.24,0.104,0.438,0.35,0.438h4.917c0.246,0,0.491-0.197,0.544-0.438l0.447-2.041l0.446-2.041l0,0
			C46.083,5.633,45.924,5.436,45.677,5.436L45.677,5.436z"/>
		<path style="fill:#7690B3;" d="M44.615,12.227v-0.002l-1.431,6.621L44.615,12.227z"/>
		<path style="fill:#7690B3;" d="M38.798,12.225l-0.69,3.059L38.798,12.225z"/>
		<path style="fill:#7690B3;" d="M44.263,11.787h-4.917c-0.246,0-0.492,0.197-0.547,0.438l-0.691,3.061l-0.689,3.059
			c-0.054,0.24-0.142,0.635-0.192,0.877l-0.663,3.121l-0.663,3.121c-0.052,0.242-0.158,0.631-0.237,0.863
			c0,0-0.918,2.734-2.462,2.703c-0.066-0.002-0.13-0.002-0.193-0.004c-0.748-0.014-1.336-0.023-1.336-0.023H31.67
			c-0.246-0.004-0.493,0.188-0.551,0.428l-0.51,2.143l-0.51,2.143c-0.057,0.24,0.098,0.438,0.343,0.441
			c0.876,0.012,2.837,0.033,4.024,0.033c3.856,0,5.89-2.139,7.193-8.287l1.525-7.057l1.431-6.621
			C44.668,11.984,44.509,11.787,44.263,11.787L44.263,11.787z"/>
		<path style="fill:#7690B3;" d="M114.104,25.895c-0.247,0-0.407-0.197-0.355-0.439l3.699-17.324"/>
		<path style="fill:#7690B3;" d="M119.244,25.455l1.495-7.395L119.244,25.455z"/>
		<path style="fill:#7690B3;" d="M113.803,25.676c-0.029-0.121-0.012-0.418,0.04-0.658l1.756-8.223l-1.85,8.66
			c-0.052,0.242,0.108,0.439,0.354,0.439h0.449C114.306,25.895,113.833,25.797,113.803,25.676L113.803,25.676z"/>
		<path style="fill:#7690B3;" d="M119.993,21.758l0.66-3.264c0,0.002,0,0.006-0.001,0.008L119.993,21.758L119.993,21.758z"/>
		<path style="fill:#7690B3;" d="M134.586,9.293l0.204,0.84c0.057,0.242-0.1,0.438-0.346,0.438"/>
		<path style="fill:#7690B3;" d="M119.334,25.016l0.658-3.258L119.334,25.016z"/>
		<path style="fill:#7690B3;" d="M134.384,8.43l0.202,0.863L134.384,8.43z"/>
		<path style="fill:#7690B3;" d="M120.652,18.494c0.049-0.242,0.131-0.633,0.182-0.871l0.706-3.303l-0.799,3.74L120.652,18.494
			L120.652,18.494z"/>
		<path style="fill:#7690B3;" d="M117.509,7.848c-0.05,0.232-0.112,0.527-0.153,0.723l-1.756,8.225l1.85-8.664L117.509,7.848
			L117.509,7.848z"/>
		<path style="fill:#7690B3;" d="M134.789,10.133l-0.204-0.84l-0.201-0.863l-0.103-0.436c-0.399-1.553-1.571-2.447-4.117-2.447
			l-3.963-0.004l-3.649-0.006h-0.312h-3.794c-0.246,0-0.49,0.199-0.542,0.439l0,0l-0.181,0.857l-0.215,1.014l-0.06,0.283
			l-1.85,8.664l-1.755,8.223c-0.052,0.24-0.069,0.537-0.039,0.658c0.029,0.121,0.502,0.219,0.749,0.219h3.704
			c0.247,0,0.56-0.045,0.693-0.098c0.135-0.055,0.333-0.539,0.383-0.781l0.658-3.258l0.659-3.256c0-0.002,0.001-0.006,0.002-0.008
			l0.088-0.434l0.799-3.74l0.705-3.307c0.052-0.24,0.295-0.436,0.541-0.436l11.657-0.008
			C134.689,10.57,134.846,10.375,134.789,10.133L134.789,10.133z"/>
		<path style="fill:#7690B3;" d="M149.796,2.521c-0.247,0.002-0.65,0.004-0.897,0.004h-3.731c-0.247,0-0.562,0.166-0.702,0.371
			l-8.25,12.088c-0.14,0.203-0.299,0.172-0.354-0.066l-0.607-2.664c-0.054-0.242-0.301-0.438-0.548-0.438h-5.304
			c-0.247,0-0.394,0.193-0.326,0.43l2.377,8.328c0.067,0.236,0.072,0.627,0.012,0.865l-1.036,4.029
			c-0.062,0.24,0.09,0.436,0.337,0.436h5.243c0.246,0,0.498-0.195,0.56-0.436l1.036-4.029c0.061-0.238,0.232-0.596,0.381-0.793
			L151.38,2.869c0.149-0.197,0.068-0.357-0.178-0.355L149.796,2.521L149.796,2.521z"/>
		<path style="fill:#7690B3;" d="M107.656,12.951v-0.006c-0.031,0.268-0.278,0.463-0.524,0.463h-6.725
			c-0.232,0-0.351-0.158-0.316-0.352c0.002-0.006,0.003-0.012,0.007-0.018c0,0-0.003,0.002-0.005,0.004
			c0.002-0.008,0.002-0.016,0.004-0.023c0,0,0.013-0.047,0.03-0.113c0.643-1.709,1.95-2.828,4.409-2.828
			C107.304,10.078,107.845,11.43,107.656,12.951L107.656,12.951z M105.684,5.188c-8.632,0-10.678,5.24-11.825,10.527
			c-1.146,5.391-1.048,10.43,7.884,10.43h0.317c0.027,0,0.057,0,0.085,0h0.25h0.092h0.234c0.034,0,0.069,0,0.104,0
			c0.09,0,0.18-0.002,0.27-0.002h0.063c0.353,0,0.712-0.002,1.071-0.004h0.018c2.359-0.01,4.725-0.027,5.684-0.033
			c0.245-0.004,0.484-0.203,0.535-0.441l0.361-1.768l0.07-0.344l0.432-2.107c0.05-0.242-0.112-0.439-0.359-0.439h-8.029
			c-3.194,0-4.143-0.85-3.793-3.344h12.837h-0.002c0.004,0,0.007,0,0.009,0c0.204-0.004,0.393-0.145,0.468-0.332
			c0.014-0.037,0.026-0.074,0.031-0.113l-0.001,0.002c1.905-7.189,1.359-12.029-6.807-12.029L105.684,5.188z"/>
		<path style="fill:#7690B3;" d="M64.887,12.922l-0.122,0.432l0,0l-0.969,3.436l-0.969,3.434c-0.067,0.238-0.324,0.434-0.57,0.434
			h-5.131c-3.892,0-4.839-3.045-3.892-7.535c0.947-4.592,2.805-7.445,6.635-7.734c5.234-0.395,6.281,3.285,5.018,7.537V12.922z
			 M68.404,20.391c0,0,2.419-5.873,2.969-9.266C72.122,6.584,69.849,0,61.067,0c-8.732,0-12.524,6.287-13.971,13.121
			c-1.447,6.885,0.448,12.922,9.131,12.873l6.849-0.025l6.402-0.021c0.246-0.004,0.498-0.197,0.562-0.438l1.115-4.254
			c0.062-0.236-0.089-0.436-0.336-0.436l-1.068-0.006l-1.068-0.008c-0.21,0-0.33-0.137-0.305-0.316
			C68.383,20.457,68.39,20.426,68.404,20.391L68.404,20.391z"/>
		<path style="fill:#7690B3;" d="M111.631,16.461c0,0.16-0.132,0.295-0.294,0.295c-0.163,0-0.295-0.135-0.295-0.295
			c0-0.164,0.132-0.295,0.295-0.295C111.499,16.166,111.631,16.297,111.631,16.461z"/>
		<path style="fill:#7690B3;" d="M1.729,8.824c-2.411,3.465-2.111,7.973-0.269,11.656c0.043,0.088,0.089,0.176,0.135,0.262
			c0.028,0.055,0.056,0.111,0.086,0.166c0.017,0.031,0.036,0.064,0.054,0.096c0.031,0.057,0.063,0.113,0.096,0.17
			c0.058,0.102,0.116,0.201,0.176,0.303c0.033,0.055,0.066,0.109,0.101,0.164c0.066,0.107,0.135,0.213,0.204,0.32
			c0.029,0.045,0.058,0.09,0.087,0.133c0.096,0.145,0.194,0.287,0.295,0.428c0.003,0.004,0.006,0.008,0.009,0.012
			c0.017,0.021,0.033,0.045,0.05,0.066c0.088,0.121,0.178,0.24,0.27,0.357C3.056,23,3.089,23.045,3.123,23.086
			c0.081,0.104,0.165,0.205,0.249,0.307c0.031,0.037,0.062,0.076,0.095,0.113c0.113,0.133,0.229,0.268,0.347,0.396
			c0.002,0.002,0.005,0.006,0.007,0.008c0.005,0.006,0.01,0.008,0.014,0.014c0.115,0.125,0.233,0.25,0.353,0.371
			c0.037,0.039,0.074,0.076,0.113,0.115c0.092,0.092,0.187,0.184,0.281,0.275c0.038,0.035,0.076,0.074,0.115,0.109
			c0.127,0.119,0.255,0.236,0.385,0.352c0.003,0.002,0.004,0.002,0.006,0.004c0.022,0.021,0.046,0.039,0.067,0.059
			c0.115,0.1,0.232,0.197,0.351,0.295c0.048,0.039,0.097,0.078,0.146,0.115c0.096,0.078,0.193,0.154,0.292,0.229
			c0.052,0.039,0.104,0.08,0.155,0.119c0.108,0.08,0.218,0.158,0.328,0.234c0.04,0.029,0.079,0.057,0.119,0.086
			c0.012,0.008,0.021,0.016,0.033,0.023c0.104,0.07,0.211,0.141,0.318,0.209c0.046,0.031,0.091,0.062,0.138,0.092
			c0.164,0.104,0.329,0.207,0.498,0.307c0.045,0.025,0.092,0.051,0.138,0.076c0.124,0.072,0.248,0.143,0.374,0.209
			c0.068,0.037,0.138,0.072,0.206,0.107c0.09,0.047,0.178,0.094,0.269,0.141c0.02,0.01,0.041,0.02,0.062,0.029
			c0.036,0.018,0.073,0.035,0.109,0.053C8.83,27.6,8.971,27.666,9.114,27.73c0.029,0.012,0.059,0.025,0.089,0.039
			c0.164,0.072,0.328,0.141,0.495,0.205c0.039,0.018,0.08,0.033,0.12,0.047c0.154,0.061,0.31,0.119,0.467,0.174
			c0.02,0.006,0.039,0.014,0.059,0.021c0.172,0.059,0.346,0.115,0.521,0.168c0.042,0.014,0.084,0.027,0.126,0.039
			c0.178,0.053,0.354,0.117,0.537,0.15c11.66,2.127,15.047-7.006,15.047-7.006c-2.845,3.705-7.894,4.684-12.678,3.596
			c-0.182-0.041-0.357-0.098-0.534-0.15c-0.045-0.014-0.089-0.027-0.133-0.041c-0.173-0.053-0.344-0.107-0.514-0.166
			c-0.024-0.008-0.048-0.018-0.071-0.025c-0.152-0.055-0.304-0.111-0.453-0.168c-0.043-0.018-0.085-0.033-0.127-0.051
			c-0.165-0.064-0.328-0.133-0.49-0.203c-0.032-0.014-0.064-0.029-0.098-0.043c-0.139-0.064-0.275-0.127-0.412-0.193
			c-0.04-0.018-0.079-0.037-0.12-0.057c-0.106-0.053-0.213-0.107-0.318-0.162c-0.071-0.037-0.144-0.072-0.214-0.111
			c-0.129-0.07-0.256-0.141-0.383-0.215c-0.042-0.025-0.086-0.047-0.129-0.072c-0.168-0.098-0.335-0.201-0.499-0.305
			c-0.045-0.029-0.089-0.061-0.134-0.09c-0.119-0.076-0.237-0.156-0.355-0.236c-0.038-0.025-0.075-0.055-0.113-0.08
			c-0.113-0.08-0.225-0.16-0.336-0.242c-0.05-0.037-0.1-0.076-0.148-0.113c-0.102-0.076-0.202-0.156-0.303-0.236
			c-0.045-0.035-0.09-0.07-0.134-0.107C7.75,21.992,7.624,21.885,7.5,21.777c-0.013-0.01-0.026-0.021-0.041-0.035
			c-0.134-0.117-0.266-0.236-0.396-0.359c-0.037-0.035-0.074-0.07-0.111-0.107c-0.097-0.092-0.191-0.184-0.284-0.279
			c-0.038-0.037-0.075-0.074-0.112-0.111c-0.118-0.121-0.234-0.244-0.349-0.369C6.2,20.51,6.194,20.504,6.188,20.498
			c-0.12-0.133-0.238-0.268-0.354-0.402c-0.032-0.039-0.062-0.074-0.093-0.111c-0.087-0.104-0.172-0.209-0.256-0.314
			c-0.031-0.039-0.062-0.078-0.093-0.117c-0.101-0.131-0.199-0.26-0.295-0.393c-2.655-3.623-3.61-8.619-1.487-12.723"/>
		<path style="fill:#7690B3;" d="M9.214,5.904c-1.744,2.51-1.648,5.869-0.289,8.521c0.229,0.445,0.484,0.877,0.771,1.287
			c0.261,0.375,0.551,0.82,0.897,1.121c0.126,0.139,0.257,0.273,0.392,0.406c0.033,0.035,0.068,0.068,0.103,0.102
			c0.131,0.127,0.263,0.25,0.399,0.371c0.006,0.004,0.011,0.01,0.017,0.014c0.001,0.002,0.003,0.004,0.004,0.004
			c0.151,0.135,0.308,0.262,0.467,0.387c0.035,0.027,0.07,0.057,0.105,0.084c0.16,0.121,0.322,0.24,0.488,0.355
			c0.006,0.004,0.01,0.006,0.015,0.01c0.073,0.051,0.148,0.098,0.223,0.148c0.036,0.023,0.069,0.047,0.105,0.068
			c0.119,0.076,0.239,0.15,0.362,0.223c0.018,0.01,0.034,0.02,0.051,0.029c0.105,0.061,0.213,0.121,0.32,0.18
			c0.037,0.02,0.075,0.039,0.113,0.059c0.074,0.039,0.148,0.078,0.225,0.115c0.011,0.006,0.022,0.012,0.033,0.016
			c0.153,0.076,0.309,0.15,0.467,0.219c0.034,0.014,0.069,0.027,0.104,0.041c0.126,0.055,0.254,0.107,0.382,0.156
			c0.055,0.02,0.11,0.039,0.165,0.061c0.115,0.043,0.233,0.082,0.351,0.121c0.054,0.018,0.106,0.035,0.159,0.051
			c0.168,0.053,0.333,0.119,0.508,0.148c9.003,1.49,11.081-5.441,11.081-5.441c-1.874,2.699-5.502,3.986-9.373,2.98
			c-0.172-0.045-0.342-0.094-0.51-0.146c-0.052-0.016-0.103-0.033-0.153-0.051c-0.12-0.037-0.238-0.078-0.357-0.121
			c-0.054-0.02-0.107-0.041-0.16-0.061c-0.13-0.051-0.257-0.102-0.385-0.154c-0.034-0.016-0.068-0.029-0.104-0.045
			c-0.158-0.068-0.314-0.143-0.469-0.217c-0.079-0.039-0.157-0.082-0.236-0.121c-0.045-0.023-0.09-0.047-0.136-0.068
			c-0.101-0.055-0.199-0.111-0.298-0.17c-0.023-0.014-0.048-0.025-0.071-0.041c-0.121-0.07-0.242-0.143-0.361-0.219
			c-0.036-0.023-0.071-0.049-0.108-0.072c-0.078-0.053-0.156-0.104-0.233-0.156c-0.166-0.113-0.327-0.234-0.486-0.355
			c-0.037-0.029-0.074-0.057-0.11-0.086c-1.694-1.338-3.037-3.168-3.677-5.24c-0.669-2.15-0.524-4.564,0.635-6.523"/>
		<path style="fill:#7690B3;" d="M15.508,3.723c-1.027,1.514-1.129,3.391-0.415,5.062c0.752,1.773,2.293,3.164,4.092,3.824
			c0.074,0.027,0.148,0.053,0.224,0.078c0.033,0.01,0.065,0.021,0.099,0.031c0.105,0.031,0.211,0.07,0.32,0.092
			c4.971,0.961,6.319-2.551,6.678-3.068c-1.181,1.701-3.165,2.109-5.601,1.518c-0.192-0.047-0.404-0.115-0.59-0.182
			c-0.237-0.084-0.472-0.182-0.699-0.291c-0.433-0.207-0.844-0.459-1.227-0.748c-2.18-1.652-3.533-4.807-2.111-7.377"/>
	</g>
</g>
<g id="Ford">
</g>
<g id="Nissan">
</g>
<g id="npr">
</g>
<g id="Ralph_Lauren">
</g>
<g id="Tetrapak">
</g>
<g id="Qualcomm">
</g>
</svg>
