<?xml version="1.0" encoding="utf-8"?>
<!-- Generator: Adobe Illustrator 16.2.1, SVG Export Plug-In . SVG Version: 6.00 Build 0)  -->
<!DOCTYPE svg PUBLIC "-//W3C//DTD SVG 1.1//EN" "http://www.w3.org/Graphics/SVG/1.1/DTD/svg11.dtd" [
	<!ENTITY ns_extend "http://ns.adobe.com/Extensibility/1.0/">
	<!ENTITY ns_ai "http://ns.adobe.com/AdobeIllustrator/10.0/">
	<!ENTITY ns_graphs "http://ns.adobe.com/Graphs/1.0/">
	<!ENTITY ns_vars "http://ns.adobe.com/Variables/1.0/">
	<!ENTITY ns_imrep "http://ns.adobe.com/ImageReplacement/1.0/">
	<!ENTITY ns_sfw "http://ns.adobe.com/SaveForWeb/1.0/">
	<!ENTITY ns_custom "http://ns.adobe.com/GenericCustomNamespace/1.0/">
	<!ENTITY ns_adobe_xpath "http://ns.adobe.com/XPath/1.0/">
]>
<svg version="1.1" xmlns:x="&ns_extend;" xmlns:i="&ns_ai;" xmlns:graph="&ns_graphs;"
	 xmlns="http://www.w3.org/2000/svg" xmlns:xlink="http://www.w3.org/1999/xlink" x="0px" y="0px" width="142.334px"
	 height="34.45px" viewBox="0 0 142.334 34.45" style="enable-background:new 0 0 142.334 34.45;" xml:space="preserve">
<metadata>
	<sfw  xmlns="&ns_sfw;">
		<slices></slices>
		<sliceSourceBounds  width="594.852" height="754.922" bottomLeftOrigin="true" x="-346.297" y="-1010.197"></sliceSourceBounds>
	</sfw>
</metadata>
<g id="Activision">
	<g>
		<path id="path45" style="fill:#7690B3;" d="M136.258,27.991h0.362c0,0.744,0.297,1.41,0.782,1.895
			c0.486,0.486,1.152,0.783,1.896,0.783c0.738,0,1.411-0.297,1.896-0.783c0.485-0.484,0.783-1.15,0.783-1.895h0.355
			c0,1.682-1.358,3.041-3.035,3.041v-0.182v0.182C137.623,31.032,136.264,29.673,136.258,27.991 M141.979,27.991
			c0-0.738-0.298-1.412-0.783-1.891c-0.485-0.486-1.158-0.789-1.896-0.789v-0.355c1.677,0,3.035,1.357,3.035,3.035H141.979
			 M139.299,25.136v-0.18V25.136 M136.258,27.991c0.006-1.678,1.365-3.035,3.041-3.035v0.355c-0.744,0-1.41,0.303-1.896,0.789
			c-0.485,0.479-0.782,1.152-0.782,1.891H136.258"/>
		<path id="path47" style="fill:#7690B3;" d="M46.002,9.455h5.332v20.341h-5.332V9.455z"/>
		<path id="path49" style="fill:#7690B3;" d="M124.025,21.124v8.594l-5.365-0.02V8.828l9.663,8.315V9.455h5.319v21.093
			L124.025,21.124"/>
		<path id="path51" style="fill:#7690B3;" d="M19.183,19.57c0-5.772,4.686-10.458,10.458-10.458c2.602,0,4.983,0.958,6.815,2.53
			L33,15.564c-0.906-0.764-2.078-1.223-3.359-1.223c-2.887,0-5.229,2.343-5.229,5.229c0,2.887,2.343,5.229,5.229,5.229
			c1.301,0,2.491-0.479,3.411-1.269l3.449,3.929c-1.831,1.598-4.232,2.562-6.86,2.562C23.868,30.022,19.183,25.343,19.183,19.57"/>
		<path id="path53" style="fill:#7690B3;" d="M61.489,34.45L51.398,7.644h-8.432v22.23h-5.521V7.644H25.228l2.834-5.34h27.279
			l6.148,16.063l6.154-16.063h26.411l2.912,5.34H71.585L61.489,34.45"/>
		<path id="path55" style="fill:#7690B3;" d="M78.535,29.718v-4.49h3.663c0.596,0,1.729-0.047,2.013-0.991
			c0.589-1.967-5.442-5.157-5.442-10.05c0-3.702,2.679-4.809,4.498-4.809h5.552v4.413H85.39c0,0-0.984,0-1.256,0.396
			c-1.489,2.129,5.514,5.242,5.514,10.963c0,2.99-2.562,4.568-5.119,4.568H78.535"/>
		<path id="path57" style="fill:#7690B3;" d="M71.662,9.378h5.34v20.34h-5.34V9.378z"/>
		<path id="path59" style="fill:#7690B3;" d="M90.515,9.378h5.339v20.34h-5.339V9.378z"/>
		<path id="path61" style="fill:#7690B3;" d="M140.089,29.544c-0.091-0.215-0.078-0.537-0.116-0.809
			c-0.053-0.357-0.188-0.512-0.563-0.512h-0.744v1.32h-0.738v-3.379h1.819c0.607,0,0.99,0.422,0.99,0.932
			c0,0.402-0.162,0.699-0.538,0.848v0.014c0.369,0.092,0.474,0.447,0.492,0.789c0.02,0.215,0.013,0.609,0.143,0.797H140.089
			 M138.665,27.7h0.815c0.33,0,0.511-0.143,0.511-0.486c0-0.324-0.181-0.467-0.511-0.467h-0.815V27.7"/>
		<path id="path63" style="fill:#7690B3;" d="M15.131,29.796l-1.417-3.785h-6.62l-1.418,3.785H0L10.406,0l10.407,29.796H15.131
			 M8.711,20.573h3.152l-1.58-5.202L8.711,20.573"/>
		<path id="path65" style="fill:#7690B3;" d="M96.824,19.563c0-5.778,4.692-10.471,10.479-10.471
			c5.779,0,10.471,4.692,10.471,10.471c0,5.787-4.691,10.479-10.471,10.479C101.517,30.042,96.824,25.351,96.824,19.563
			 M102.1,19.563c0,2.874,2.329,5.203,5.203,5.203c2.867,0,5.196-2.329,5.196-5.203c0-2.866-2.329-5.196-5.196-5.196
			C104.429,14.367,102.1,16.697,102.1,19.563"/>
	</g>
</g>
<g id="Sony">
</g>
<g id="jQuery">
</g>
<g id="Ford">
</g>
<g id="Nissan">
</g>
<g id="npr">
</g>
<g id="Ralph_Lauren">
</g>
<g id="Tetrapak">
</g>
<g id="Qualcomm">
</g>
</svg>
