<?xml version="1.0" encoding="utf-8"?>
<!-- Generator: Adobe Illustrator 16.2.1, SVG Export Plug-In . SVG Version: 6.00 Build 0)  -->
<!DOCTYPE svg PUBLIC "-//W3C//DTD SVG 1.1//EN" "http://www.w3.org/Graphics/SVG/1.1/DTD/svg11.dtd" [
	<!ENTITY ns_extend "http://ns.adobe.com/Extensibility/1.0/">
	<!ENTITY ns_ai "http://ns.adobe.com/AdobeIllustrator/10.0/">
	<!ENTITY ns_graphs "http://ns.adobe.com/Graphs/1.0/">
	<!ENTITY ns_vars "http://ns.adobe.com/Variables/1.0/">
	<!ENTITY ns_imrep "http://ns.adobe.com/ImageReplacement/1.0/">
	<!ENTITY ns_sfw "http://ns.adobe.com/SaveForWeb/1.0/">
	<!ENTITY ns_custom "http://ns.adobe.com/GenericCustomNamespace/1.0/">
	<!ENTITY ns_adobe_xpath "http://ns.adobe.com/XPath/1.0/">
]>
<svg version="1.1" xmlns:x="&ns_extend;" xmlns:i="&ns_ai;" xmlns:graph="&ns_graphs;"
	 xmlns="http://www.w3.org/2000/svg" xmlns:xlink="http://www.w3.org/1999/xlink" x="0px" y="0px" width="151.442px"
	 height="26.411px" viewBox="0 0 151.442 26.411" style="enable-background:new 0 0 151.442 26.411;" xml:space="preserve">
<metadata>
	<sfw  xmlns="&ns_sfw;">
		<slices></slices>
		<sliceSourceBounds  width="594.852" height="754.922" bottomLeftOrigin="true" x="-346.297" y="-1010.197"></sliceSourceBounds>
	</sfw>
</metadata>
<g id="Activision">
</g>
<g id="Sony">
	<g>
		<path style="fill-rule:evenodd;clip-rule:evenodd;fill:#7690B3;" d="M149.14,21.329c-1.281,0-2.313,1.031-2.313,2.301
			c0,1.281,1.032,2.314,2.313,2.314c1.274,0,2.303-1.033,2.303-2.314C151.442,22.36,150.414,21.329,149.14,21.329L149.14,21.329
			L149.14,21.329L149.14,21.329z M149.14,25.667c-1.123,0-2.03-0.906-2.03-2.037c0-1.117,0.907-2.023,2.03-2.023
			c1.117,0,2.024,0.906,2.024,2.023C151.164,24.761,150.257,25.667,149.14,25.667L149.14,25.667L149.14,25.667L149.14,25.667z"/>
		<path style="fill-rule:evenodd;clip-rule:evenodd;fill:#7690B3;" d="M150.324,23.026c0-0.219-0.097-0.447-0.289-0.557
			c-0.194-0.113-0.412-0.127-0.629-0.127l0,0h-1.125v2.58h0.315v-1.189h0.579l0.737,1.189h0.375l-0.779-1.189l0,0
			C149.967,23.72,150.324,23.534,150.324,23.026L150.324,23.026L150.324,23.026L150.324,23.026z M149.08,23.485h-0.483v-0.912h0.736
			l0,0c0.32,0,0.671,0.049,0.671,0.447C150.004,23.546,149.442,23.485,149.08,23.485L149.08,23.485L149.08,23.485L149.08,23.485z"/>
		<path style="fill-rule:evenodd;clip-rule:evenodd;fill:#7690B3;" d="M135.609,10.555l4.72-5.041l0,0
			c0.273-0.369,0.41-0.629,0.41-0.85c0-0.371-0.318-0.518-1.318-0.518l0,0h-1.191V0.965h12.89v3.182h-1.695l0,0
			c-1.955,0-2.32,0.295-5.047,3.734l0,0l-7.467,8.062v4.919l0,0c0,1.26,0.636,1.703,2.456,1.703l0,0h2.819v3.068h-18.053v-3.068
			h2.82l0,0c1.817,0,2.455-0.443,2.455-1.703l0,0v-4.919l-8.794-9.727l0,0c-1.454-1.701-1.254-2.07-5.299-2.07l0,0V0.965h16.327
			v3.182h-1.163l0,0c-1.183,0-1.684,0.221-1.684,0.666c0,0.369,0.363,0.664,0.592,0.959l0,0l4.449,4.85l0,0
			C134.362,11.17,135.008,11.242,135.609,10.555L135.609,10.555L135.609,10.555L135.609,10.555z"/>
		<path style="fill-rule:evenodd;clip-rule:evenodd;fill:#7690B3;" d="M26.074,0.963h3.938v8.879h-3.637l0,0
			c-0.322-1.777-1.433-2.467-2.446-3.396c-1.827-1.68-5.783-3.076-9.111-3.076c-4.294,0-7.919,1.33-7.919,3.291
			c0,5.438,24.562,1.109,24.562,11.393c0,5.362-5.261,8.358-14.71,8.358c-3.271,0-8.222-1.016-11.143-2.566
			c-0.915-0.529-1.304,0.5-1.475,1.789l0,0H0.096v-9.171h3.651l0,0c0.806,2.329,1.915,2.808,2.936,3.735
			c1.771,1.627,5.987,2.811,9.854,2.773c5.829-0.057,7.833-1.332,7.833-3.182c0-1.851-1.982-2.292-8.37-3.292l0,0l-5.423-0.887l0,0
			C4.456,14.688,0,13.316,0,8.436c0-5.066,5.638-8.248,14.549-8.248c3.756,0,6.9,0.502,9.915,2.207
			C25.301,2.936,26.084,3.002,26.074,0.963L26.074,0.963L26.074,0.963L26.074,0.963z"/>
		<path style="fill-rule:evenodd;clip-rule:evenodd;fill:#7690B3;" d="M102.928,15.824l0.078-9.865l0,0
			c0-1.293-0.673-1.738-2.598-1.738l0,0h-2.261V1.152h14.385v3.068h-1.875l0,0c-1.925,0-2.599,0.445-2.599,1.738l0,0v19.862
			l-5.632-0.045L84.195,8.512V21.05l0,0c0,1.258,0.674,1.738,2.598,1.738l0,0h2.502v3.033H74.357v-3.033h2.476l0,0
			c1.923,0,2.597-0.48,2.597-1.738l0,0V5.959l0,0c0-1.293-0.674-1.738-2.597-1.738l0,0h-2.476V1.152h12.916L102.928,15.824
			L102.928,15.824L102.928,15.824z"/>
		<path style="fill-rule:evenodd;clip-rule:evenodd;fill:#7690B3;" d="M54.746,0c-11.464,0-18.64,5.066-18.64,13.205
			c0,7.989,7.076,13.021,18.29,13.021c11.911,0,18.839-4.957,18.839-13.427C73.235,5.18,65.759,0,54.746,0L54.746,0L54.746,0
			L54.746,0z M54.485,23.005c-6.346,0-9.993-3.66-9.993-9.985c0-6.176,3.807-9.838,10.31-9.838c6.239,0,9.888,3.736,9.888,10.098
			C64.689,19.493,60.989,23.005,54.485,23.005L54.485,23.005L54.485,23.005L54.485,23.005z"/>
	</g>
</g>
<g id="jQuery">
</g>
<g id="Ford">
</g>
<g id="Nissan">
</g>
<g id="npr">
</g>
<g id="Ralph_Lauren">
</g>
<g id="Tetrapak">
</g>
<g id="Qualcomm">
</g>
</svg>
