<?xml version="1.0" encoding="utf-8"?>
<!-- Generator: Adobe Illustrator 16.2.1, SVG Export Plug-In . SVG Version: 6.00 Build 0)  -->
<!DOCTYPE svg PUBLIC "-//W3C//DTD SVG 1.1//EN" "http://www.w3.org/Graphics/SVG/1.1/DTD/svg11.dtd" [
	<!ENTITY ns_extend "http://ns.adobe.com/Extensibility/1.0/">
	<!ENTITY ns_ai "http://ns.adobe.com/AdobeIllustrator/10.0/">
	<!ENTITY ns_graphs "http://ns.adobe.com/Graphs/1.0/">
	<!ENTITY ns_vars "http://ns.adobe.com/Variables/1.0/">
	<!ENTITY ns_imrep "http://ns.adobe.com/ImageReplacement/1.0/">
	<!ENTITY ns_sfw "http://ns.adobe.com/SaveForWeb/1.0/">
	<!ENTITY ns_custom "http://ns.adobe.com/GenericCustomNamespace/1.0/">
	<!ENTITY ns_adobe_xpath "http://ns.adobe.com/XPath/1.0/">
]>
<svg version="1.1" xmlns:x="&ns_extend;" xmlns:i="&ns_ai;" xmlns:graph="&ns_graphs;"
	 xmlns="http://www.w3.org/2000/svg" xmlns:xlink="http://www.w3.org/1999/xlink" x="0px" y="0px" width="146.205px"
	 height="55.783px" viewBox="0 0 146.205 55.783" style="enable-background:new 0 0 146.205 55.783;" xml:space="preserve">
<metadata>
	<sfw  xmlns="&ns_sfw;">
		<slices></slices>
		<sliceSourceBounds  width="594.852" height="754.922" bottomLeftOrigin="true" x="-346.297" y="-1010.197"></sliceSourceBounds>
	</sfw>
</metadata>
<g id="Activision">
</g>
<g id="Sony">
</g>
<g id="jQuery">
</g>
<g id="Ford">
	<g>
		<g>
			<path style="fill-rule:evenodd;clip-rule:evenodd;fill:#7690B3;" d="M73.126,0C32.721,0,0,12.508,0,27.916
				s32.721,27.867,73.126,27.867c40.358,0,73.079-12.459,73.079-27.867S113.484,0,73.126,0z M73.126,52.93
				c-38.756,0-70.25-11.127-70.25-25.014c0-13.838,31.494-25.109,70.25-25.109c38.85,0,70.299,11.271,70.299,25.109
				C143.425,41.803,111.976,52.93,73.126,52.93z M73.126,4.898c-37.624,0-68.034,10.32-68.034,23.018
				c0,12.744,30.41,23.066,68.034,23.066c37.577,0,68.082-10.322,68.082-23.066C141.208,15.219,110.703,4.898,73.126,4.898z
				 M39.792,42.088c-4.102,0-7.731-2.711-7.826-7.561c-0.047-2.951,2.311-6.564,6.695-7.656c0.519,0,0.707,0.189,0.707,0.475
				c0,0.189-0.188,0.428-0.613,0.617c-1.272,0.477-3.488,2.996-3.488,5.326c0,1.76,1.084,3.709,2.923,4.139
				c0.519,0.143,0.99,0.096,1.462,0.096c4.573,0,9.713-5.186,15.275-13.08c-0.896,0.049-4.715,0.477-5.657,1.57
				c-0.425,0.334-0.707,0.143-0.802-0.238c0-0.094,0.142-0.428,0.283-0.617c1.509-1.711,6.034-2.094,7.119-2.236
				c4.062-6.283,9.239-10.289,10.666-10.578c-0.033-0.008-0.072-0.02-0.104-0.027c-3.632-0.854-6.932-1.568-9.525-1.568
				c-9.1,0-13.154,3.947-12.966,7.562c0.095,1.475,1.273,2.426,3.018,2.092c1.886-0.332,4.526-2.139,5.187-3.709
				c0.142-0.334,0.519-0.381,0.66-0.287c0.282,0.24,0.188,0.572,0.188,0.572c-0.236,1.854-3.064,6.99-7.969,6.99
				c-2.734,0-4.573-2.566-4.525-5.088c0.047-4.709,4.809-9.465,16.549-9.465c2.216,0,4.715,0.189,7.45,0.666
				c3.158,0.57,11.032,1.902,17.444,1.998c2.357,0,5.375,0.096,7.826-0.285c2.594-0.428,2.028-0.523,3.064-0.523
				c0.942,0,0.942,0.379,0.942,0.762c0,1.52-5.279,4.422-9.759,4.422c-6.6,0-13.448-3.018-17.004-3.988
				c0.137,0.129,0.233,0.338,0.125,0.611c-0.047,0.096-0.52,0.619-0.706,0.762c-0.944,0.855-4.15,2.949-7.639,8.893
				c2.828-0.143,6.129-0.715,6.129-0.715s-0.188-0.615-0.188-1.139c0.141-2.047,1.319-3.283,2.828-3.045
				c0.85,0.143,1.415,0.857,1.415,1.617c0,0.809-0.612,1.998-1.227,2.566c-0.424,0.334-0.896,0.668-1.462,0.953
				c0,0.523,0.708,0.951,1.32,0.998c-0.142,0.523-0.094,0.762-0.329,0.713c-1.415,0-1.98-1.379-1.98-1.379
				c-1.885,0.334-3.725,0.572-7.449,0.951C48.468,39.566,45.545,42.088,39.792,42.088z M104.433,39.566
				c2.027-0.094,5.751-3.994,6.647-4.945c0.188-0.238,0.52-0.666,0.708-0.666c0.188,0,0.565,0.189,0.565,0.477
				c0,0.189-0.425,0.904-0.754,1.33c-1.887,2.379-4.998,6.041-8.534,6.137c-1.745,0-2.404-0.715-2.641-2.094
				c-0.801,0.713-3.536,1.949-6.317,1.949c-2.31-0.047-3.254-1.426-3.726-2.52c-0.424-0.904-0.612-2.236-0.281-3.568
				c-1.274,0.668-2.453,0.762-4.15,0.715c-1.979-0.047-3.206-0.951-3.818-3.281c-2.263,4.186-2.357,4.328-4.668,8.703h-4.008
				l5.14-8.799c0.659-1.188,0.99-2.141,1.226-3.139c0.142-0.57-0.283-1.094-0.896-1.141c-0.659,0-1.743,0.666-2.781,1.664
				c0,0-2.641,2.854-4.573,5.754c-1.839,2.76-4.997,5.898-8.439,5.898c-2.499,0-4.763-1.381-5.233-4.043
				c0,0-0.235,0.619-2.451,1.902c-0.189,0.096-0.661,0.381-0.802,0.285c-0.425-0.381-0.66-0.855-0.708-1.189
				c0.142,0.049,0.425-0.189,1.32-0.902c1.744-1.332,2.122-2.379,2.122-2.379c0.424-0.904,1.18-2.33,1.697-3.328
				c1.415-2.854,3.866-5.754,7.874-5.896c0.659,0,0.849,0.285,0.989,0.521c0.378,0.285,0.236,0.857,0.236,0.857
				c-2.829,0.428-4.761,2.092-5.941,3.707c-0.706,1.047-1.461,2.76-1.603,3.996c-0.282,2.141,0.707,3.566,2.169,3.9
				c2.734,0.428,4.998-1.57,6.789-4.662c0.472-0.807,0.802-2.898,0.802-4.041c0-1.141-0.613-2.33-1.084-2.807
				c0-0.809,0.519-1.33,1.131-1.33c0.188,0,0.378,0,0.566,0.189c0.942,0.951,1.461,2.758,1.461,4.137c0,0.477,0,0.953-0.095,1.428
				c1.98-2.426,4.48-5.564,6.412-6.182c0.379-0.191,0.755-0.191,1.132-0.191c3.536-0.096,3.065,3.139,3.065,3.139
				c1.886-2.188,3.206-2.996,4.951-2.9c1.885,0.096,2.545,1.428,2.545,2.473c-0.047,1.236-0.942,2.662-2.498,2.711
				c-1.368,0-2.169-0.666-2.595-1.902c-0.896,0.332-1.318,0.951-1.508,2.189c-0.282,1.566,0.896,2.805,2.404,2.805
				c2.593,0,3.726-1.143,4.668-1.998c3.205-3.043,4.997-6.229,9.618-6.182c2.781,0.047,3.489,2.281,3.961,3.232l6.081-10.367h3.726
				l-10.091,18.025c-0.188,0.379-0.66,1.092-0.612,1.664C103.725,39.805,104.857,39.566,104.433,39.566z M100.755,28.582
				c-1.65-0.189-3.725,1.236-5.422,3.33c-0.849,1.045-1.745,3.043-1.886,4.23c-0.188,1.191,0.141,2.377,0.565,2.713
				c0.425,0.332,2.31,1.33,5.233-1.666c1.65-1.664,3.253-4.375,3.253-4.375l-0.519-0.143
				C102.971,30.816,102.782,28.818,100.755,28.582z M67.232,21.164c0.283-0.285,0.754-1.143,0.66-1.713
				c-0.047-0.285-0.188-0.619-0.518-0.57c-0.708,0.143-1.132,0.475-1.321,1.189c-0.235,0.76-0.141,1.283,0,1.854
				C66.054,21.924,66.525,21.971,67.232,21.164z"/>
		</g>
	</g>
</g>
<g id="Nissan">
</g>
<g id="npr">
</g>
<g id="Ralph_Lauren">
</g>
<g id="Tetrapak">
</g>
<g id="Qualcomm">
</g>
</svg>
