<?xml version="1.0" encoding="utf-8"?>
<!-- Generator: Adobe Illustrator 16.2.1, SVG Export Plug-In . SVG Version: 6.00 Build 0)  -->
<!DOCTYPE svg PUBLIC "-//W3C//DTD SVG 1.1//EN" "http://www.w3.org/Graphics/SVG/1.1/DTD/svg11.dtd" [
	<!ENTITY ns_extend "http://ns.adobe.com/Extensibility/1.0/">
	<!ENTITY ns_ai "http://ns.adobe.com/AdobeIllustrator/10.0/">
	<!ENTITY ns_graphs "http://ns.adobe.com/Graphs/1.0/">
	<!ENTITY ns_vars "http://ns.adobe.com/Variables/1.0/">
	<!ENTITY ns_imrep "http://ns.adobe.com/ImageReplacement/1.0/">
	<!ENTITY ns_sfw "http://ns.adobe.com/SaveForWeb/1.0/">
	<!ENTITY ns_custom "http://ns.adobe.com/GenericCustomNamespace/1.0/">
	<!ENTITY ns_adobe_xpath "http://ns.adobe.com/XPath/1.0/">
]>
<svg version="1.1" xmlns:x="&ns_extend;" xmlns:i="&ns_ai;" xmlns:graph="&ns_graphs;"
	 xmlns="http://www.w3.org/2000/svg" xmlns:xlink="http://www.w3.org/1999/xlink" x="0px" y="0px" width="162.262px"
	 height="35.395px" viewBox="0 0 162.262 35.395" style="enable-background:new 0 0 162.262 35.395;" xml:space="preserve">
<metadata>
	<sfw  xmlns="&ns_sfw;">
		<slices></slices>
		<sliceSourceBounds  width="594.852" height="754.922" bottomLeftOrigin="true" x="-346.297" y="-1010.197"></sliceSourceBounds>
	</sfw>
</metadata>
<g id="Activision">
</g>
<g id="Sony">
</g>
<g id="jQuery">
</g>
<g id="Ford">
</g>
<g id="Nissan">
</g>
<g id="npr">
</g>
<g id="Ralph_Lauren">
</g>
<g id="Tetrapak">
</g>
<g id="Qualcomm">
	<g transform="translate(-104.77 -102.55)">
		<g>
			<path style="fill:#7690B3;" d="M170.805,124.233c0,0.667,0.774,1.443,1.44,1.443l9.874-0.006l-2.211-3.559h-5.719v-13.687h-3.384
				L170.805,124.233z"/>
			<path style="fill:#7690B3;" d="M134.588,117.459c0-8.233-6.676-14.909-14.909-14.909c-8.234,0-14.909,6.676-14.909,14.909
				s6.675,14.909,14.909,14.909c0.875,0,1.707-0.081,2.541-0.226l-0.025,5.802h4.193v-7.219
				C131.23,128.261,134.588,123.263,134.588,117.459z M126.388,124.416v-4.801l-4.193,1.197l0.005,5.95
				c-0.805,0.219-1.646,0.354-2.521,0.354c-5.334,0-9.657-4.324-9.657-9.658c0-5.332,4.323-9.656,9.657-9.656
				s9.657,4.324,9.657,9.656C129.336,120.189,128.207,122.657,126.388,124.416z"/>
			<path style="fill:#7690B3;" d="M148.341,125.677h-9.743c-0.667,0-1.451-0.773-1.451-1.441l-0.007-15.812h3.384v13.688h5.87
				v-13.688h3.385l0.003,15.812C149.782,124.904,149.008,125.677,148.341,125.677L148.341,125.677z"/>
		</g>
		<path style="fill:#7690B3;" d="M193.785,109.062c-1.353-0.792-2.939-1.25-4.62-1.25c-5.053,0-9.149,4.097-9.149,9.148
			c0,5.054,4.097,9.15,9.149,9.15c1.578,0,3.087-0.412,4.385-1.116l-1.65-2.971c-0.815,0.442-1.741,0.697-2.734,0.697
			c-3.183,0-5.762-2.579-5.762-5.761c0-3.181,2.579-5.76,5.762-5.76c1.074,0,2.084,0.304,2.944,0.816L193.785,109.062
			L193.785,109.062z"/>
		<g>
			<path style="fill:#7690B3;" d="M201.623,107.859c-5.053,0-9.141,4.119-9.141,9.172s4.089,9.124,9.141,9.124
				c5.054,0,9.15-4.097,9.15-9.147C210.773,111.953,206.676,107.859,201.623,107.859z M201.623,122.767
				c-3.181,0-5.753-2.556-5.753-5.735c0-3.182,2.572-5.784,5.753-5.784c3.182,0,5.762,2.579,5.762,5.76
				S204.804,122.767,201.623,122.767z"/>
			<path style="fill:#7690B3;" d="M161.969,108.455h-3.354l-7.548,17.132h3.594l1.773-3.775l7.823,0.002l0.16,0.362l1.505,3.411
				h3.594L161.969,108.455L161.969,108.455z M157.566,119.002l2.722-6.189l2.73,6.189H157.566L157.566,119.002z"/>
			<path style="fill:#7690B3;" d="M265.203,123.557l-6.196-14.301c-0.37-0.689-1.007-1.008-1.907-1.008
				c-0.899,0-1.535,0.318-1.905,1.008l-4.556,10.486l-4.556-10.486c-0.369-0.689-1.006-1.008-1.906-1.008s-1.537,0.318-1.907,1.008
				l-4.556,10.511l-4.555-10.511c-0.37-0.689-1.007-1.008-1.905-1.008c-0.9,0-1.537,0.318-1.908,1.008l-4.556,10.486l-4.554-10.486
				c-0.372-0.689-1.008-1.008-1.907-1.008c-0.9,0-1.536,0.318-1.907,1.008l-6.198,14.301c-0.853,2.237,2.227,3.389,3.231,1.588
				l4.874-11.388l4.873,11.388c0.636,1.166,2.596,1.114,3.179,0l4.874-11.388l4.872,11.388c0.32,0.573,0.849,0.818,1.393,0.854
				c0.067,0.011,0.13,0.014,0.195,0.018c0.068-0.004,0.131-0.006,0.197-0.018c0.544-0.035,1.074-0.281,1.395-0.854l4.873-11.388
				l4.872,11.388c0.582,1.114,2.543,1.166,3.177,0l4.874-11.388l4.873,11.388C262.98,126.945,266.055,125.794,265.203,123.557
				L265.203,123.557z"/>
		</g>
		<path style="fill:#7690B3;" d="M265.009,108.571c-1.102,0-2.032,0.847-2.032,1.995c0,1.159,0.931,2.006,2.032,2.006
			c1.089,0,2.022-0.847,2.022-2.006C267.032,109.418,266.098,108.571,265.009,108.571z M265.009,112.239
			c-0.917,0-1.63-0.709-1.63-1.673c0-0.947,0.713-1.662,1.63-1.662c0.905,0,1.619,0.715,1.619,1.662
			C266.628,111.53,265.915,112.239,265.009,112.239z M265.929,110.075c0-0.456-0.269-0.657-0.814-0.657h-0.878v2.308h0.348v-1h0.402
			l0.609,1h0.393l-0.656-1.017C265.669,110.667,265.929,110.487,265.929,110.075L265.929,110.075z M264.584,110.429v-0.714h0.477
			c0.245,0,0.503,0.053,0.503,0.339c0,0.354-0.264,0.375-0.562,0.375H264.584z"/>
	</g>
</g>
</svg>
