<?xml version="1.0" encoding="utf-8"?>
<!-- Generator: Adobe Illustrator 16.2.1, SVG Export Plug-In . SVG Version: 6.00 Build 0)  -->
<!DOCTYPE svg PUBLIC "-//W3C//DTD SVG 1.1//EN" "http://www.w3.org/Graphics/SVG/1.1/DTD/svg11.dtd" [
	<!ENTITY ns_extend "http://ns.adobe.com/Extensibility/1.0/">
	<!ENTITY ns_ai "http://ns.adobe.com/AdobeIllustrator/10.0/">
	<!ENTITY ns_graphs "http://ns.adobe.com/Graphs/1.0/">
	<!ENTITY ns_vars "http://ns.adobe.com/Variables/1.0/">
	<!ENTITY ns_imrep "http://ns.adobe.com/ImageReplacement/1.0/">
	<!ENTITY ns_sfw "http://ns.adobe.com/SaveForWeb/1.0/">
	<!ENTITY ns_custom "http://ns.adobe.com/GenericCustomNamespace/1.0/">
	<!ENTITY ns_adobe_xpath "http://ns.adobe.com/XPath/1.0/">
]>
<svg version="1.1" xmlns:x="&ns_extend;" xmlns:i="&ns_ai;" xmlns:graph="&ns_graphs;"
	 xmlns="http://www.w3.org/2000/svg" xmlns:xlink="http://www.w3.org/1999/xlink" x="0px" y="0px" width="142.209px"
	 height="48.018px" viewBox="0 0 142.209 48.018" style="enable-background:new 0 0 142.209 48.018;" xml:space="preserve">
<metadata>
	<sfw  xmlns="&ns_sfw;">
		<slices></slices>
		<sliceSourceBounds  width="594.852" height="754.922" bottomLeftOrigin="true" x="-346.297" y="-1010.197"></sliceSourceBounds>
	</sfw>
</metadata>
<g id="Activision">
</g>
<g id="Sony">
</g>
<g id="jQuery">
</g>
<g id="Ford">
</g>
<g id="Nissan">
</g>
<g id="npr">
	<g>
		<g>
			<path style="fill:#7690B3;" d="M0,0v48.018h142.209V0H0z M46.949,46.565H1.464V1.452h45.485V46.565z M93.798,46.565H48.413V1.452
				h45.386V46.565z M140.745,46.565H95.358V1.452h45.387V46.565z M18.896,18.704c0.526-0.679,1.259-1.252,2.194-1.707
				c0.936-0.46,1.816-0.69,2.641-0.69c1.784,0,3.07,0.469,3.855,1.397c0.787,0.935,1.181,2.414,1.181,4.443v13.74h5.614v-14.62
				c0-3.036-0.831-5.408-2.484-7.104c-1.654-1.701-3.915-2.551-6.771-2.551c-2.981,0-5.234,0.877-6.761,2.63l-1.034-2.226h-4.045
				v23.871h5.61V18.704z M65.878,35.309c1.454,0.696,3.062,1.048,4.832,1.048c3.67,0,6.563-1.054,8.687-3.162
				c2.119-2.105,3.177-5.118,3.177-9.019c0-8.373-3.832-12.563-11.503-12.563c-2.054,0-3.784,0.671-5.191,2.006v-1.602h-5.613v33.19
				h5.613V35.309z M65.878,17.928c1.043-1.033,2.238-1.555,3.583-1.555c2.581,0,4.434,0.575,5.554,1.725
				c1.117,1.147,1.677,3.127,1.677,5.944c0,2.636-0.564,4.566-1.689,5.787c-1.128,1.222-2.983,1.835-5.564,1.835
				c-1.359,0-2.547-0.407-3.561-1.225V17.928z M116.067,22.347c0-1.688,0.5-3.116,1.506-4.285c1.007-1.171,2.158-1.755,3.451-1.755
				c1.194,0,2.288,0.313,3.288,0.939l2.368-4.765c-1.013-0.579-2.475-0.869-4.379-0.869c-2.594,0-4.67,0.895-6.234,2.685v-2.28
				h-5.613v23.871h5.613V22.347z"/>
		</g>
	</g>
</g>
<g id="Ralph_Lauren">
</g>
<g id="Tetrapak">
</g>
<g id="Qualcomm">
</g>
</svg>
